<svg width="198" height="60" viewBox="0 0 198 60" fill="none" xmlns="http://www.w3.org/2000/svg">
<g clip-path="url(#clip0_16285_407471)">
<path d="M63.6901 48.8298H71.5001C72.8001 51.8198 75.9201 53.1898 80.0201 53.1898C85.7501 53.1898 89.3301 50.5198 89.3301 43.0398V40.2398C87.1201 43.8198 83.2801 45.7698 78.4601 45.7698C70.7801 45.7698 62.5801 40.6298 62.5801 29.2398C62.5801 19.4798 69.7401 12.3198 79.8901 12.3198C90.0401 12.3198 97.0701 19.0898 97.0701 29.4998V42.7698C97.0701 55.0698 89.4601 59.8798 80.0201 59.8798C72.0201 59.8798 65.7101 56.4298 63.6901 48.8198V48.8298ZM89.3301 29.2398C89.3301 23.5798 85.5601 19.5398 79.8901 19.5398C74.2201 19.5398 70.3901 23.5698 70.3901 29.2398C70.3901 34.9098 74.2301 38.5498 79.8901 38.5498C85.5501 38.5498 89.3301 34.9098 89.3301 29.2398Z" fill="#4775FF"/>
<path d="M99.1501 29.2398C99.1501 19.4798 106.31 12.3198 116.46 12.3198C126.61 12.3198 133.64 19.4798 133.64 29.2398V31.9698H107.29C108.33 36.6598 111.91 39.1298 116.46 39.1298C119.91 39.1298 122.45 38.1498 124.07 36.0698H132.33C129.92 42.1898 124.07 46.1598 116.45 46.1598C106.3 46.1598 99.1401 38.9998 99.1401 29.2398H99.1501ZM125.44 25.7898C124.2 21.4998 120.69 19.3498 116.46 19.3498C112.23 19.3498 108.72 21.5598 107.48 25.7898H125.44Z" fill="#4775FF"/>
<path d="M136.09 28.5898C136.09 17.8498 142.47 12.3198 151.97 12.3198C161.47 12.3198 167.85 17.7898 167.85 28.5898V45.3098H160.11V28.5898C160.11 22.4698 156.86 19.5498 151.98 19.5498C147.1 19.5498 143.85 22.4798 143.85 28.5898V45.3098H136.11V28.5898H136.09Z" fill="#4775FF"/>
<path d="M170.04 35.8098H177.85C177.92 37.9598 179.8 39.3898 183.58 39.3898C187.55 39.3898 189.24 37.7598 189.24 35.8098C189.24 33.3398 186.38 33.0098 182.93 32.5598C177.99 31.9098 170.7 31.0598 170.7 23.1898C170.7 16.6198 175.71 12.3198 183.45 12.3198C191.19 12.3198 196.14 16.7398 196.33 22.4098H188.65C188.45 20.4598 186.63 19.0898 183.57 19.0898C180.19 19.0898 178.5 20.7198 178.5 22.5998C178.5 25.0698 181.43 25.4598 184.88 25.9198C189.17 26.5098 197.05 27.3498 197.05 35.3498C197.05 41.8598 191.78 46.1498 183.58 46.1498C175.38 46.1498 170.24 41.7898 170.05 35.7998L170.04 35.8098Z" fill="#4775FF"/>
<path d="M21.1999 25.1401H21.0999L17.1299 32.8701H24.8999L21.1999 25.1401Z" fill="white"/>
<path d="M59.51 12.25H50.02V45.74H59.51V12.25Z" fill="white"/>
<path d="M54.7698 10.8902C57.7698 10.8902 60.2098 8.45023 60.2098 5.44023C60.2098 2.43023 57.7698 -0.00976562 54.7698 -0.00976562C51.7698 -0.00976562 49.3198 2.43023 49.3198 5.44023C49.3198 8.45023 51.7598 10.8902 54.7698 10.8902Z" fill="white"/>
<path d="M20.3599 10.9998L37.1799 45.7498H47.2399L25.7299 0.799805H25.5999L20.3599 10.9998Z" fill="white"/>
<path d="M7.63 31.27C3.42 31.27 0 34.69 0 38.9C0 43.11 3.42 46.53 7.63 46.53C11.84 46.53 15.26 43.1 15.26 38.9C15.26 34.7 11.84 31.27 7.63 31.27Z" fill="white"/>
</g>
<defs>
<clipPath id="clip0_16285_407471">
<rect width="197.04" height="59.89" fill="white"/>
</clipPath>
</defs>
</svg>
