<svg width="235" height="30" viewBox="0 0 235 30" fill="none" xmlns="http://www.w3.org/2000/svg">
<path d="M30.8132 0.886536H0V26.1237H30.8132V0.886536Z" fill="#0071CE"/>
<path d="M28.3815 7.82003C27.9471 8.26262 27.4021 8.48392 26.7414 8.48392C26.1199 8.48392 25.5837 8.25946 25.1316 7.80486C24.6795 7.35405 24.4532 6.80713 24.4532 6.16537C24.4532 5.52677 24.6795 4.97796 25.1316 4.52525C25.5837 4.07255 26.1199 3.84619 26.7414 3.84619C27.3819 3.84619 27.925 4.07255 28.367 4.52525C28.8096 4.97796 29.0321 5.52677 29.0321 6.16537C29.0321 6.82483 28.8159 7.37681 28.3815 7.82003Z" fill="#E70095"/>
<path d="M29.0327 9.75604H24.6239V24.5108H29.0327V9.75604Z" fill="white"/>
<path d="M46.1168 12.2156L44.7321 12.3579C44.7707 12.4122 44.894 12.612 45.102 12.9497C45.3068 13.2905 45.4674 13.6673 45.5819 14.0827C45.7127 14.4595 45.7798 14.966 45.7798 15.6071C45.7798 16.4752 45.5762 17.2535 45.1696 17.9396C44.7681 18.6281 44.1662 19.1769 43.3759 19.5942C44.3009 20.1961 44.9749 20.8379 45.3991 21.5151C45.8228 22.1941 46.0346 23.061 46.0346 24.1169C46.0529 25.0217 45.8367 25.8171 45.3833 26.505C44.9319 27.1923 44.3363 27.7619 43.6029 28.2127C42.8669 28.6667 42.0468 29.0056 41.142 29.232C40.2373 29.4571 39.3527 29.5614 38.4859 29.5437C35.8657 29.5437 33.7071 28.6484 32.0126 26.8572L34.5272 24.1725C35.6982 25.2841 36.9678 25.8411 38.3455 25.8411C39.1927 25.8411 39.9451 25.6324 40.6065 25.2183C41.2849 24.8231 41.6226 24.2395 41.6226 23.4663C41.6226 22.6734 41.3166 22.0759 40.7051 21.6706C40.0937 21.2647 39.335 21.0624 38.4302 21.0624C37.7885 21.0624 37.2112 21.1186 36.6908 21.2337C36.173 21.3456 35.5926 21.5062 34.9515 21.713L35.2922 20.3561C34.3881 19.887 33.6395 19.2155 33.0445 18.3499C32.4508 17.4818 32.1543 16.5397 32.1543 15.5217C32.1543 14.5607 32.3269 13.6894 32.6778 12.9073C33.0262 12.1258 33.4966 11.4505 34.0903 10.8865C34.6853 10.3207 35.3814 9.88187 36.1831 9.57079C36.9829 9.26097 37.8447 9.1048 38.7698 9.1048C38.9013 9.1048 39.0941 9.11997 39.3495 9.14716C39.6031 9.17435 39.918 9.20913 40.2961 9.24706C40.6742 9.2831 41.0074 9.31598 41.2995 9.34443C41.5922 9.37415 41.8312 9.39754 42.0184 9.41588C42.7354 9.41588 43.5263 9.31598 44.3938 9.11934C45.2613 8.92144 46.1174 8.71658 46.9678 8.50793L46.1168 12.2156ZM36.5353 16.5542C36.6845 16.8837 36.8818 17.1714 37.129 17.416C37.3724 17.6614 37.6563 17.8548 37.9769 17.9971C38.2974 18.1394 38.6269 18.2089 38.9664 18.2089C39.3047 18.2089 39.6334 18.1394 39.9565 17.9971C40.2771 17.8548 40.5585 17.6677 40.8031 17.4312C41.0466 17.1954 41.2451 16.914 41.3969 16.5808C41.5473 16.252 41.6213 15.891 41.6213 15.4946C41.6213 15.0988 41.5473 14.7415 41.3969 14.421C41.2451 14.0985 41.0466 13.819 40.8031 13.5724C40.5585 13.3284 40.2765 13.1374 39.9565 13.0066C39.6334 12.8744 39.3047 12.808 38.9664 12.808C38.6269 12.808 38.2974 12.8744 37.9769 13.0066C37.6563 13.1374 37.3724 13.3284 37.129 13.5724C36.8818 13.819 36.6845 14.0985 36.5353 14.421C36.3836 14.7415 36.3096 15.0988 36.3096 15.4946C36.3096 15.8708 36.3836 16.2242 36.5353 16.5542Z" fill="#0071CE"/>
<path d="M53.3823 19.6758C53.6484 20.0362 53.9937 20.3055 54.4293 20.4838C54.8618 20.6621 55.3037 20.7532 55.7577 20.7532C57.1917 20.7532 58.601 20.1784 59.9958 19.0277L62.2891 22.4502C61.2876 23.1647 60.2525 23.7261 59.1789 24.1308C58.1022 24.5348 56.9344 24.7378 55.6692 24.7378C54.5589 24.777 53.5245 24.5607 52.5628 24.089C51.6005 23.6167 50.7653 23.0104 50.0597 22.2643C49.3553 21.5214 48.8078 20.6931 48.4214 19.7788C48.0345 18.862 47.8499 17.9731 47.8707 17.1049C47.8315 16.0516 48.0161 15.0387 48.4214 14.0669C48.8255 13.0963 49.3825 12.2396 50.09 11.4948C50.7956 10.7487 51.6157 10.1619 52.5508 9.72757C53.4828 9.2932 54.4685 9.08771 55.5035 9.10605C57.0311 9.10605 58.4531 9.51197 59.772 10.3225C61.1093 11.1521 62.0988 12.2434 62.7399 13.6009L53.3823 19.6758ZM57.4547 13.4011C57.0766 13.0053 56.4355 12.808 55.5307 12.808C54.5867 12.808 53.7787 13.1867 53.0984 13.9398C52.4389 14.7112 52.112 15.5704 52.112 16.5106V17.0209L57.4547 13.4011Z" fill="#0071CE"/>
<path d="M69.1872 11.3114H69.2416C70.2222 9.84141 71.4836 9.10608 73.0295 9.10608C76.5721 9.10608 78.3444 11.1799 78.3444 15.3264V24.4564L73.933 24.514V15.6343C73.933 14.7871 73.7396 14.1523 73.3558 13.7274C72.9688 13.3037 72.4238 13.0913 71.7283 13.0913C71.0505 13.0913 70.515 13.3037 70.1185 13.7274C69.7221 14.1523 69.5229 14.7871 69.5229 15.6343V24.4564L65.1147 24.514V9.55626H69.1865V11.3114H69.1872Z" fill="#0071CE"/>
<path d="M82.0742 19.679C82.9398 20.5838 84.0077 21.0346 85.2691 21.0346C86.5886 21.0346 87.2513 20.6401 87.2513 19.8491C87.2513 19.4349 86.8788 19.1232 86.1435 18.9152C85.7894 18.8204 85.4057 18.723 84.9997 18.6168C84.5944 18.5144 84.1556 18.3961 83.684 18.2646C83.2332 18.1508 82.8095 17.9864 82.4131 17.7695C82.0167 17.552 81.6784 17.2707 81.397 16.9229C81.1125 16.5714 80.8855 16.1478 80.7161 15.6489C80.5498 15.1494 80.4625 14.5614 80.4625 13.8823C80.4625 13.0926 80.6073 12.3996 80.9007 11.804C81.1947 11.211 81.5937 10.7134 82.1014 10.3062C82.6135 9.90089 83.1996 9.60119 83.8717 9.40203C84.5407 9.20476 85.2387 9.10486 85.9741 9.10486C86.8245 9.10486 87.6768 9.29264 88.5335 9.67138C89.3928 10.0463 90.149 10.5376 90.8116 11.1408L88.3792 13.6281C87.6622 13.0825 86.8909 12.8081 86.0588 12.8081C85.0604 12.8081 84.5616 13.1002 84.5616 13.6857C84.5616 14.232 84.9276 14.5993 85.6623 14.7865C86.0442 14.88 86.4344 14.9863 86.8359 15.0988C87.2418 15.2101 87.6711 15.3252 88.1251 15.4371C88.5759 15.5509 88.9995 15.7109 89.3953 15.9182C89.7917 16.1237 90.137 16.4026 90.4303 16.7516C90.718 17.1012 90.9475 17.5248 91.1081 18.0237C91.2649 18.5226 91.3471 19.1131 91.3471 19.7909C91.3471 20.5832 91.1834 21.285 90.866 21.8964C90.5448 22.5103 90.1211 23.0275 89.5951 23.4511C89.0652 23.8748 88.4602 24.1972 87.7703 24.4128C87.0837 24.6278 86.3699 24.7372 85.6345 24.7372C85.0149 24.7372 84.4547 24.7037 83.9558 24.6405C83.457 24.5741 82.9784 24.459 82.5275 24.3003C82.0736 24.1397 81.6291 23.9323 81.1966 23.6788C80.7641 23.4246 80.3139 23.1085 79.841 22.7316L82.0742 19.679Z" fill="#0071CE"/>
<path d="M12.4109 12.0177L14.9267 16.7673H9.89508L12.4109 12.0177ZM12.4109 4.18634L2.00747 24.5392H6.81275L8.73676 20.413H16.0003L17.9509 24.5392H22.9832L12.4678 4.18634H12.4109Z" fill="white"/>
<path d="M129.641 12.0057C130.514 12.0057 131.315 12.1943 132.023 12.548C132.73 12.9017 133.343 13.3968 133.838 14.0334C134.333 14.67 134.711 15.401 134.994 16.2498C135.253 17.0986 135.394 18.0417 135.394 19.032C135.394 19.8101 135.276 20.4939 135.041 21.0833C134.805 21.6964 134.451 22.2151 134.003 22.6395C133.555 23.0639 132.966 23.394 132.306 23.6062C131.622 23.842 130.844 23.9599 129.995 23.9599C128.085 23.9599 126.647 23.4412 125.68 22.4037C124.713 21.3663 124.218 19.7865 124.218 17.7116C124.218 16.8864 124.336 16.1083 124.572 15.401C124.808 14.6936 125.161 14.1041 125.633 13.609C126.105 13.1139 126.67 12.7366 127.354 12.4537C127.967 12.1471 128.745 12.0057 129.641 12.0057ZM129.877 20.6825C130.113 20.6825 130.325 20.6118 130.537 20.4939C130.726 20.376 130.914 20.1873 131.056 19.9751C131.197 19.7629 131.315 19.5272 131.386 19.2442C131.457 18.9613 131.504 18.6783 131.504 18.3954C131.504 16.4856 130.844 15.5424 129.523 15.5424C128.604 15.5424 128.156 16.2733 128.156 17.7352C128.156 18.1832 128.203 18.584 128.274 18.9377C128.344 19.2914 128.462 19.6215 128.627 19.8808C128.792 20.1402 128.957 20.3288 129.17 20.4939C129.382 20.6118 129.618 20.6825 129.877 20.6825Z" fill="#DE695C"/>
<path d="M146.712 23.4412L143.246 23.8184L140.676 20.7768V23.7241L136.597 23.9127L136.172 12.1471C136.102 12.1471 136.055 12.1236 136.055 12.1C136.055 12.0293 136.479 12.0057 137.351 12.0057C138.766 12.0057 139.969 12.0528 141.006 12.1236C142.043 12.2179 142.869 12.3829 143.529 12.6894C144.189 12.9724 144.684 13.3968 144.991 13.9391C145.297 14.4814 145.462 15.2123 145.462 16.1555C145.462 17.1457 144.896 18.0889 143.741 19.0084L146.712 23.4412ZM140.299 17.0986C141.289 16.9571 141.784 16.6034 141.784 16.0376V15.9433C141.737 15.6603 141.595 15.401 141.289 15.1887C141.006 14.9765 140.582 14.8586 140.039 14.8115L140.299 17.0986Z" fill="#DE695C"/>
<path d="M150.013 12.0057C152.371 12.0057 154.139 12.548 155.342 13.609C156.544 14.67 157.134 16.2262 157.134 18.2303C157.134 20.0695 156.544 21.4842 155.342 22.4744C154.139 23.4647 152.371 23.9363 149.989 23.9363C149.589 23.9363 149.211 23.9127 148.881 23.8891C148.527 23.8656 148.221 23.8184 147.938 23.7712L147.184 12.265C148.009 12.0764 148.952 12.0057 150.013 12.0057ZM151.357 20.2109C151.663 20.1402 151.946 20.0223 152.182 19.8808C152.418 19.7158 152.63 19.5507 152.819 19.3385C152.984 19.1263 153.125 18.8905 153.22 18.6548C153.314 18.3954 153.361 18.1596 153.361 17.9003C153.361 17.6409 153.314 17.3815 153.196 17.1457C153.102 16.91 152.937 16.6978 152.748 16.5091C152.559 16.3205 152.324 16.1555 152.064 16.0376C151.805 15.9197 151.522 15.8254 151.215 15.7782L151.357 20.2109Z" fill="#DE695C"/>
<path d="M166.565 23.9363H158.1V12.1943H166.164V15.2123L162.132 15.401L162.274 16.9571H166.046V19.3621H162.509V20.7296H166.541V23.9363H166.565Z" fill="#DE695C"/>
<path d="M178 23.4412L174.534 23.8184L171.964 20.7768V23.7241L167.885 23.9127L167.461 12.1471C167.39 12.1471 167.343 12.1236 167.343 12.1C167.343 12.0293 167.767 12.0057 168.64 12.0057C170.054 12.0057 171.257 12.0528 172.294 12.1236C173.332 12.2179 174.157 12.3829 174.817 12.6894C175.477 12.9724 175.973 13.3968 176.279 13.9391C176.586 14.4814 176.751 15.2123 176.751 16.1555C176.751 17.1457 176.185 18.0889 175.029 19.0084L178 23.4412ZM171.587 17.0986C172.577 16.9571 173.072 16.6034 173.072 16.0376V15.9433C173.025 15.6603 172.884 15.401 172.577 15.1887C172.294 14.9765 171.87 14.8586 171.328 14.8115L171.587 17.0986Z" fill="#DE695C"/>
<path d="M190.12 12.0057C191.558 12.0057 192.642 12.3594 193.421 13.0903C194.199 13.8212 194.576 14.8351 194.576 16.179C194.576 18.2539 193.538 19.5743 191.487 20.1873C190.968 20.3524 190.45 20.4231 189.931 20.4231L190.049 23.9599H185.734V12.2415L189.365 12.0528C189.507 12.0528 189.624 12.0293 189.719 12.0293C189.813 12.0293 189.884 12.0057 189.955 12.0057H190.12ZM189.79 17.5466C190.237 17.523 190.638 17.4051 190.968 17.1693C191.299 16.9571 191.464 16.6742 191.464 16.3205C191.464 15.8725 191.275 15.5188 190.921 15.2359C190.568 14.953 190.096 14.8351 189.554 14.8351H189.507L189.79 17.5466Z" fill="#DE695C"/>
<path d="M203.229 23.9363H195.826V12.2886L199.362 12.0057V20.6825H203.229V23.9363Z" fill="#DE695C"/>
<path d="M216.103 23.5826H211.741L211.175 21.5077H208.888L208.416 23.9127H204.172L207.497 11.9821H213.014L216.103 23.5826ZM210.892 18.3718L210.138 15.0944L209.336 18.3718H210.892Z" fill="#DE695C"/>
<path d="M223.954 15.9668C223.412 15.6839 222.87 15.5424 222.328 15.5424C221.974 15.5424 221.644 15.6132 221.361 15.7782C221.054 15.9433 220.819 16.1319 220.606 16.3912C220.394 16.6506 220.229 16.9335 220.111 17.2636C219.993 17.5937 219.946 17.9238 219.946 18.3011C219.946 18.6076 219.993 18.9141 220.111 19.1971C220.229 19.48 220.394 19.7158 220.606 19.9044C220.819 20.093 221.078 20.2581 221.384 20.376C221.691 20.4939 222.045 20.541 222.422 20.541C223.224 20.541 223.884 20.3524 224.426 19.9751L225.511 22.9696C224.332 23.6062 223.011 23.9363 221.597 23.9363C217.966 23.9363 216.15 22.0736 216.15 18.3482C216.15 17.523 216.291 16.7213 216.551 15.9433C216.81 15.1887 217.211 14.505 217.706 13.9155C218.201 13.3261 218.838 12.8545 219.569 12.5244C220.3 12.1707 221.125 12.0057 222.068 12.0057C222.493 12.0057 222.917 12.0293 223.318 12.0764C223.719 12.1236 224.096 12.1707 224.426 12.2415C224.756 12.3122 225.015 12.4065 225.228 12.5244C225.44 12.6423 225.558 12.7602 225.605 12.8781L223.954 15.9668Z" fill="#DE695C"/>
<path d="M234.966 23.9363H227.02V12.1943H234.588V15.2123L230.792 15.401L230.91 16.9571H234.447V19.3621H231.146V20.7296H234.942V23.9363H234.966Z" fill="#DE695C"/>
<path d="M184.767 21.6256C184.767 22.946 183.706 24.007 182.386 24.007C181.066 24.007 180.005 22.946 180.005 21.6256C180.005 20.3053 181.066 19.2442 182.386 19.2442C183.706 19.2442 184.767 20.3053 184.767 21.6256Z" fill="#DE695C"/>
</svg>
