<?xml version="1.0" encoding="utf-8"?>
<!-- Generator: Adobe Illustrator 24.3.0, SVG Export Plug-In . SVG Version: 6.00 Build 0)  -->
<svg version="1.1" id="圖層_1" xmlns="http://www.w3.org/2000/svg" xmlns:xlink="http://www.w3.org/1999/xlink" x="0px" y="0px"
	 viewBox="0 0 375 423" style="enable-background:new 0 0 375 423;" xml:space="preserve">
<style type="text/css">
	.st0{opacity:3.000000e-02;clip-path:url(#SVGID_2_);}
	.st1{fill:#FFFFFF;}
</style>
<g>
	<defs>
		<rect id="SVGID_1_" width="374.8" height="423"/>
	</defs>
	<clipPath id="SVGID_2_">
		<use xlink:href="#SVGID_1_"  style="overflow:visible;"/>
	</clipPath>
	<g class="st0">
		<path class="st1" d="M3.6,370.9l-24.8,0.1c-0.7,0-1.3,0.5-1.2,1.1c0,0.7,0.5,1.3,1.1,1.2l24.8-0.1c0.7,0,1.3-0.5,1.2-1.1
			C4.6,371.4,4.1,370.8,3.6,370.9z"/>
		<path class="st1" d="M15,436.8c0.6,0.3,1.2,0.2,1.6-0.4l12.5-21.4c0.3-0.6,0.2-1.2-0.4-1.6c-0.6-0.3-1.2-0.2-1.6,0.4l-12.5,21.4
			C14.2,435.7,14.4,436.5,15,436.8z"/>
		<path class="st1" d="M-3.5,401.9l12.2-22.4c0.3-0.6,0.2-1.2-0.4-1.6c-0.6-0.3-1.2-0.2-1.6,0.4l-12.2,22.4
			c-0.3,0.6-0.2,1.2,0.4,1.6C-4.5,402.6-3.7,402.4-3.5,401.9z"/>
		<path class="st1" d="M-5.3,416l11.8,20.5c0.3,0.5,1.1,0.7,1.6,0.4c0.5-0.3,0.7-1.1,0.4-1.6l-11.8-20.5c-0.3-0.5-1.1-0.7-1.6-0.4
			C-5.4,414.7-5.7,415.3-5.3,416z"/>
		<path class="st1" d="M34.1,340.2c2-1.1,2.6-3.6,1.5-5.6c-1.1-2-3.6-2.6-5.6-1.5c-2,1.1-2.6,3.6-1.5,5.6
			C29.6,340.7,32.1,341.3,34.1,340.2z"/>
		<path class="st1" d="M55.1,376.6c2-1.1,2.6-3.6,1.5-5.6c-1.1-2-3.6-2.6-5.6-1.5c-2,1.1-2.6,3.6-1.5,5.6
			C50.6,377.1,53.1,377.8,55.1,376.6z"/>
		<path class="st1" d="M64.8,335.5L40,335.6c-0.7,0-1.3,0.5-1.2,1.1c0,0.7,0.5,1.3,1.1,1.2l24.8-0.1c0.7,0,1.3-0.5,1.2-1.1
			C66,336,65.4,335.4,64.8,335.5z"/>
		<path class="st1" d="M13.6,375.5c2-1.1,2.6-3.6,1.5-5.6c-1.1-2-3.6-2.6-5.6-1.5c-2,1.1-2.6,3.6-1.5,5.6
			C9.1,376,11.6,376.7,13.6,375.5z"/>
		<path class="st1" d="M34,410.9c2-1.1,2.6-3.6,1.5-5.6c-1.1-2-3.6-2.6-5.6-1.5c-2,1.1-2.6,3.6-1.5,5.6
			C29.5,411.4,32,412.1,34,410.9z"/>
		<path class="st1" d="M76.2,401.5c0.6,0.3,1.2,0.2,1.6-0.4l12.5-21.4c0.3-0.6,0.2-1.2-0.4-1.6c-0.6-0.3-1.2-0.2-1.6,0.4l-12.5,21.4
			C75.4,400.4,75.6,401.2,76.2,401.5z"/>
		<path class="st1" d="M39.9,408.7l24.8-0.1c0.7,0,1.3-0.5,1.2-1.1c0-0.7-0.5-1.3-1.1-1.2L40,406.4c-0.7,0-1.3,0.5-1.2,1.1
			C38.8,407.9,39.4,408.5,39.9,408.7z"/>
		<path class="st1" d="M16.5,365.7l12.5-21.4c0.3-0.6,0.2-1.2-0.4-1.6c-0.6-0.3-1.2-0.2-1.6,0.4l-12.5,21.4
			c-0.3,0.6-0.2,1.2,0.4,1.6C15.6,366.5,16.3,366.2,16.5,365.7z"/>
		<path class="st1" d="M14.5,379.5L26.9,401c0.3,0.5,1.1,0.7,1.6,0.4c0.5-0.3,0.7-1.1,0.4-1.6l-12.4-21.5c-0.3-0.5-1.1-0.7-1.6-0.4
			C14.4,378.2,14.2,379,14.5,379.5z"/>
		<path class="st1" d="M57.8,366.5L70,344.1c0.3-0.6,0.2-1.2-0.4-1.6c-0.6-0.3-1.2-0.2-1.6,0.4l-12.2,22.4c-0.3,0.6-0.2,1.2,0.4,1.6
			C56.7,367.3,57.5,367.1,57.8,366.5z"/>
		<path class="st1" d="M50,365.5L37,343c-0.3-0.5-1.1-0.7-1.6-0.4c-0.5,0.3-0.7,1.1-0.4,1.6l13,22.5c0.3,0.5,1.1,0.7,1.6,0.4
			C50.1,366.8,50.3,366,50,365.5z"/>
		<path class="st1" d="M45,371.6L19.5,371c-0.7,0-1.3,0.5-1.2,1.1c0,0.7,0.5,1.3,1.1,1.2l25.5,0.7c0.7,0,1.3-0.5,1.2-1.1
			C46.1,372.3,45.7,371.7,45,371.6z"/>
		<path class="st1" d="M56,380.6l11.8,20.5c0.3,0.5,1.1,0.7,1.6,0.4c0.5-0.3,0.7-1.1,0.4-1.6l-11.8-20.5c-0.3-0.5-1.1-0.7-1.6-0.4
			C55.8,379.4,55.6,379.9,56,380.6z"/>
		<path class="st1" d="M95.2,304.9c2-1.1,2.6-3.6,1.5-5.6c-1.1-2-3.6-2.6-5.6-1.5c-2,1.1-2.6,3.6-1.5,5.6
			C90.8,305.3,93.3,306,95.2,304.9z"/>
		<path class="st1" d="M116.3,341.3c2-1.1,2.6-3.6,1.5-5.6c-1.1-2-3.6-2.6-5.6-1.5c-2,1.1-2.6,3.6-1.5,5.6
			C111.8,341.8,114.3,342.4,116.3,341.3z"/>
		<path class="st1" d="M126,300.2l-24.8,0.1c-0.7,0-1.3,0.5-1.2,1.1c0,0.7,0.5,1.3,1.1,1.2l24.8-0.1c0.7,0,1.3-0.5,1.2-1.1
			C127.2,300.7,126.6,300.1,126,300.2z"/>
		<path class="st1" d="M74.7,340.2c2-1.1,2.6-3.6,1.5-5.6c-1.1-2-3.6-2.6-5.6-1.5c-2,1.1-2.6,3.6-1.5,5.6
			C70.3,340.7,72.8,341.3,74.7,340.2z"/>
		<path class="st1" d="M95.2,375.6c2-1.1,2.6-3.6,1.5-5.6c-1.1-2-3.6-2.6-5.6-1.5c-2,1.1-2.6,3.6-1.5,5.6
			C90.7,376.1,93.2,376.8,95.2,375.6z"/>
		<path class="st1" d="M137.4,366.2c0.6,0.3,1.2,0.2,1.6-0.4l12.5-21.4c0.3-0.6,0.2-1.2-0.4-1.6c-0.6-0.3-1.2-0.2-1.6,0.4L137,364.6
			C136.7,365,136.9,365.8,137.4,366.2z"/>
		<path class="st1" d="M101.3,373.2l24.8-0.1c0.7,0,1.3-0.5,1.2-1.1c0-0.7-0.5-1.3-1.1-1.2l-24.8,0.1c-0.7,0-1.3,0.5-1.2,1.1
			C100,372.6,100.6,373.2,101.3,373.2z"/>
		<path class="st1" d="M77.8,330.3l12.5-21.4c0.3-0.6,0.2-1.2-0.4-1.6c-0.6-0.3-1.2-0.2-1.6,0.4l-12.5,21.4
			c-0.3,0.6-0.2,1.2,0.4,1.6C76.7,331.1,77.5,330.9,77.8,330.3z"/>
		<path class="st1" d="M75.7,344.2l12.4,21.5c0.3,0.5,1.1,0.7,1.6,0.4c0.5-0.3,0.7-1.1,0.4-1.6L77.7,343c-0.3-0.5-1.1-0.7-1.6-0.4
			C75.6,342.9,75.4,343.7,75.7,344.2z"/>
		<path class="st1" d="M119,331.1l12.2-22.4c0.3-0.6,0.2-1.2-0.4-1.6c-0.6-0.3-1.2-0.2-1.6,0.4L117,330c-0.3,0.6-0.2,1.2,0.4,1.6
			C118.1,331.9,118.7,331.8,119,331.1z"/>
		<path class="st1" d="M111.2,330.2l-13-22.5c-0.3-0.5-1.1-0.7-1.6-0.4c-0.5,0.3-0.7,1.1-0.4,1.6l13,22.5c0.3,0.5,1.1,0.7,1.6,0.4
			C111.3,331.5,111.5,330.7,111.2,330.2z"/>
		<path class="st1" d="M106.2,336.3l-25.5-0.7c-0.7,0-1.3,0.5-1.2,1.1c0,0.7,0.5,1.3,1.1,1.2l25.5,0.7c0.7,0,1.3-0.5,1.2-1.1
			C107.4,336.9,106.9,336.3,106.2,336.3z"/>
		<path class="st1" d="M117.2,345.3l11.8,20.5c0.3,0.5,1.1,0.7,1.6,0.4c0.5-0.3,0.7-1.1,0.4-1.6l-11.8-20.5
			c-0.3-0.5-1.1-0.7-1.6-0.4C117.1,344,116.8,344.6,117.2,345.3z"/>
		<path class="st1" d="M156.4,269.5c2-1.1,2.6-3.6,1.5-5.6s-3.6-2.6-5.6-1.5s-2.6,3.6-1.5,5.6C151.9,270,154.4,270.7,156.4,269.5z"
			/>
		<path class="st1" d="M177.4,306c2-1.1,2.6-3.6,1.5-5.6c-1.1-2-3.6-2.6-5.6-1.5c-2,1.1-2.6,3.6-1.5,5.6
			C173,306.4,175.5,307.1,177.4,306z"/>
		<path class="st1" d="M187.3,264.8l-24.8,0.1c-0.7,0-1.3,0.5-1.2,1.1c0,0.7,0.5,1.3,1.1,1.2l24.8-0.1c0.7,0,1.3-0.5,1.2-1.1
			C188.5,265.3,187.9,264.7,187.3,264.8z"/>
		<path class="st1" d="M136.1,304.8c2-1.1,2.6-3.6,1.5-5.6c-1.1-2-3.6-2.6-5.6-1.5c-2,1.1-2.6,3.6-1.5,5.6
			C131.6,305.2,134.1,305.9,136.1,304.8z"/>
		<path class="st1" d="M156.5,340.2c2-1.1,2.6-3.6,1.5-5.6c-1.1-2-3.6-2.6-5.6-1.5c-2,1.1-2.6,3.6-1.5,5.6
			C152.1,340.7,154.6,341.3,156.5,340.2z"/>
		<path class="st1" d="M198.8,330.7c0.6,0.3,1.2,0.2,1.6-0.4l12.5-21.4c0.3-0.6,0.2-1.2-0.4-1.6c-0.6-0.3-1.2-0.2-1.6,0.4
			l-12.5,21.4C197.9,329.7,198.1,330.4,198.8,330.7z"/>
		<path class="st1" d="M162.4,337.9l24.8-0.1c0.7,0,1.3-0.5,1.2-1.1c0-0.7-0.5-1.3-1.1-1.2l-24.8,0.1c-0.7,0-1.3,0.5-1.2,1.1
			C161.2,337.3,161.7,337.9,162.4,337.9z"/>
		<path class="st1" d="M139,295l12.5-21.4c0.3-0.6,0.2-1.2-0.4-1.6c-0.6-0.3-1.2-0.2-1.6,0.4L137,293.9c-0.3,0.6-0.2,1.2,0.4,1.6
			C138.1,295.7,138.7,295.6,139,295z"/>
		<path class="st1" d="M137,308.8l12.4,21.5c0.3,0.5,1.1,0.7,1.6,0.4c0.5-0.3,0.7-1.1,0.4-1.6l-12.4-21.5c-0.3-0.5-1.1-0.7-1.6-0.4
			C136.8,307.5,136.7,308.2,137,308.8z"/>
		<path class="st1" d="M180.3,295.7l12.2-22.4c0.3-0.6,0.2-1.2-0.4-1.6c-0.6-0.3-1.2-0.2-1.6,0.4l-12.2,22.4
			c-0.3,0.6-0.2,1.2,0.4,1.6C179.3,296.6,180,296.4,180.3,295.7z"/>
		<path class="st1" d="M172.4,294.9l-13-22.5c-0.3-0.5-1.1-0.7-1.6-0.4c-0.5,0.3-0.7,1.1-0.4,1.6l13,22.5c0.3,0.5,1.1,0.7,1.6,0.4
			C172.6,296.1,172.7,295.4,172.4,294.9z"/>
		<path class="st1" d="M167.5,300.9l-25.5-0.7c-0.7,0-1.3,0.5-1.2,1.1c0,0.7,0.5,1.3,1.1,1.2l25.5,0.7c0.7,0,1.3-0.5,1.2-1.1
			C168.6,301.6,168,301,167.5,300.9z"/>
		<path class="st1" d="M178.4,310l11.8,20.5c0.3,0.5,1.1,0.7,1.6,0.4c0.5-0.3,0.7-1.1,0.4-1.6l-11.8-20.5c-0.3-0.5-1.1-0.7-1.6-0.4
			C178.3,308.6,178,309.3,178.4,310z"/>
		<path class="st1" d="M217.8,234.1c2-1.1,2.6-3.6,1.5-5.6c-1.1-2-3.6-2.6-5.6-1.5c-2,1.1-2.6,3.6-1.5,5.6
			C213.3,234.6,215.8,235.3,217.8,234.1z"/>
		<path class="st1" d="M238.8,270.6c2-1.1,2.6-3.6,1.5-5.6c-1.1-2-3.6-2.6-5.6-1.5c-2,1.1-2.6,3.6-1.5,5.6
			C234.3,271,236.8,271.7,238.8,270.6z"/>
		<path class="st1" d="M248.5,229.5l-24.8,0.1c-0.7,0-1.3,0.5-1.2,1.1c0,0.7,0.5,1.3,1.1,1.2l24.8-0.1c0.7,0,1.3-0.5,1.2-1.1
			C249.7,229.9,249.1,229.3,248.5,229.5z"/>
		<path class="st1" d="M197.3,269.5c2-1.1,2.6-3.6,1.5-5.6c-1.1-2-3.6-2.6-5.6-1.5c-2,1.1-2.6,3.6-1.5,5.6
			C192.8,269.9,195.3,270.6,197.3,269.5z"/>
		<path class="st1" d="M217.7,304.9c2-1.1,2.6-3.6,1.5-5.6c-1.1-2-3.6-2.6-5.6-1.5c-2,1.1-2.6,3.6-1.5,5.6
			C213.2,305.3,215.7,306,217.7,304.9z"/>
		<path class="st1" d="M259.9,295.4c0.6,0.3,1.2,0.2,1.6-0.4l12.5-21.4c0.3-0.6,0.2-1.2-0.4-1.6c-0.6-0.3-1.2-0.2-1.6,0.4
			l-12.5,21.4C259.1,294.3,259.3,295.1,259.9,295.4z"/>
		<path class="st1" d="M223.8,302.5l24.8-0.1c0.7,0,1.3-0.5,1.2-1.1c0-0.7-0.5-1.3-1.1-1.2l-24.8,0.1c-0.7,0-1.3,0.5-1.2,1.1
			C222.5,301.9,223.1,302.5,223.8,302.5z"/>
		<path class="st1" d="M200.4,259.5l12.5-21.4c0.3-0.6,0.2-1.2-0.4-1.6c-0.6-0.3-1.2-0.2-1.6,0.4l-12.5,21.4
			c-0.3,0.6-0.2,1.2,0.4,1.6C199.3,260.4,200,260.2,200.4,259.5z"/>
		<path class="st1" d="M198.2,273.4l12.4,21.5c0.3,0.5,1.1,0.7,1.6,0.4c0.5-0.3,0.7-1.1,0.4-1.6l-12.4-21.5
			c-0.3-0.5-1.1-0.7-1.6-0.4C198.1,272.1,197.9,272.9,198.2,273.4z"/>
		<path class="st1" d="M241.5,260.4l12.2-22.4c0.3-0.6,0.2-1.2-0.4-1.6c-0.6-0.3-1.2-0.2-1.6,0.4l-12.2,22.4
			c-0.3,0.6-0.2,1.2,0.4,1.6C240.4,261.3,241.2,261,241.5,260.4z"/>
		<path class="st1" d="M233.8,259.5l-13-22.5c-0.3-0.5-1.1-0.7-1.6-0.4c-0.5,0.3-0.7,1.1-0.4,1.6l13,22.5c0.3,0.5,1.1,0.7,1.6,0.4
			C233.8,260.8,234,260,233.8,259.5z"/>
		<path class="st1" d="M228.7,265.6l-25.5-0.7c-0.7,0-1.3,0.5-1.2,1.1c0,0.7,0.5,1.3,1.1,1.2l25.5,0.7c0.7,0,1.3-0.5,1.2-1.1
			C229.9,266.2,229.4,265.6,228.7,265.6z"/>
		<path class="st1" d="M239.7,274.5l11.8,20.5c0.3,0.5,1.1,0.7,1.6,0.4c0.5-0.3,0.7-1.1,0.4-1.6l-11.8-20.5
			c-0.3-0.5-1.1-0.7-1.6-0.4C239.7,273.2,239.3,273.9,239.7,274.5z"/>
		<path class="st1" d="M278.9,198.8c2-1.1,2.6-3.6,1.5-5.6c-1.1-2-3.6-2.6-5.6-1.5c-2,1.1-2.6,3.6-1.5,5.6
			C274.5,199.3,277,199.9,278.9,198.8z"/>
		<path class="st1" d="M300,235.2c2-1.1,2.6-3.6,1.5-5.6c-1.1-2-3.6-2.6-5.6-1.5c-2,1.1-2.6,3.6-1.5,5.6
			C295.5,235.7,298,236.4,300,235.2z"/>
		<path class="st1" d="M309.7,194.1l-24.8,0.1c-0.7,0-1.3,0.5-1.2,1.1c0,0.7,0.5,1.3,1.1,1.2l24.8-0.1c0.7,0,1.3-0.5,1.2-1.1
			C310.9,194.6,310.3,194,309.7,194.1z"/>
		<path class="st1" d="M258.6,234c2-1.1,2.6-3.6,1.5-5.6c-1.1-2-3.6-2.6-5.6-1.5c-2,1.1-2.6,3.6-1.5,5.6
			C254.1,234.5,256.6,235.2,258.6,234z"/>
		<path class="st1" d="M279.1,269.5c2-1.1,2.6-3.6,1.5-5.6c-1.1-2-3.6-2.6-5.6-1.5c-2,1.1-2.6,3.6-1.5,5.6
			C274.6,269.9,277.1,270.6,279.1,269.5z"/>
		<path class="st1" d="M321.1,260.1c0.6,0.3,1.2,0.2,1.6-0.4l12.5-21.4c0.3-0.6,0.2-1.2-0.4-1.6c-0.6-0.3-1.2-0.2-1.6,0.4
			l-12.5,21.4C320.4,258.9,320.6,259.7,321.1,260.1z"/>
		<path class="st1" d="M285,267.2l24.8-0.1c0.7,0,1.3-0.5,1.2-1.1c0-0.7-0.5-1.3-1.1-1.2l-24.8,0.1c-0.7,0-1.3,0.5-1.2,1.1
			C283.7,266.6,284.3,267.1,285,267.2z"/>
		<path class="st1" d="M261.5,224.2l12.5-21.4c0.3-0.6,0.2-1.2-0.4-1.6c-0.6-0.3-1.2-0.2-1.6,0.4l-12.5,21.4
			c-0.3,0.6-0.2,1.2,0.4,1.6C260.4,225.1,261.2,224.9,261.5,224.2z"/>
		<path class="st1" d="M259.6,238l12.4,21.5c0.3,0.5,1.1,0.7,1.6,0.4c0.5-0.3,0.7-1.1,0.4-1.6l-12.4-21.5c-0.3-0.5-1.1-0.7-1.6-0.4
			C259.3,236.8,259.3,237.5,259.6,238z"/>
		<path class="st1" d="M302.7,225.1l12.2-22.4c0.3-0.6,0.2-1.2-0.4-1.6c-0.6-0.3-1.2-0.2-1.6,0.4L300.7,224
			c-0.3,0.6-0.2,1.2,0.4,1.6C301.8,225.8,302.6,225.6,302.7,225.1z"/>
		<path class="st1" d="M294.9,224.1l-13-22.5c-0.3-0.5-1.1-0.7-1.6-0.4c-0.5,0.3-0.7,1.1-0.4,1.6l13,22.5c0.3,0.5,1.1,0.7,1.6,0.4
			C295.2,225.4,295.2,224.7,294.9,224.1z"/>
		<path class="st1" d="M289.9,230.2l-25.5-0.7c-0.7,0-1.3,0.5-1.2,1.1c0,0.7,0.5,1.3,1.1,1.2l25.5,0.7c0.7,0,1.3-0.5,1.2-1.1
			C291.1,230.9,290.6,230.3,289.9,230.2z"/>
		<path class="st1" d="M300.9,239.2l11.8,20.5c0.3,0.5,1.1,0.7,1.6,0.4c0.5-0.3,0.7-1.1,0.4-1.6L303,238c-0.3-0.5-1.1-0.7-1.6-0.4
			C300.8,237.9,300.5,238.5,300.9,239.2z"/>
		<path class="st1" d="M340.3,163.4c2-1.1,2.6-3.6,1.5-5.6c-1.1-2-3.6-2.6-5.6-1.5c-2,1.1-2.6,3.6-1.5,5.6
			C335.8,163.8,338.3,164.5,340.3,163.4z"/>
		<path class="st1" d="M361.3,199.8c2-1.1,2.6-3.6,1.5-5.6c-1.1-2-3.6-2.6-5.6-1.5c-2,1.1-2.6,3.6-1.5,5.6
			C356.9,200.3,359.4,201,361.3,199.8z"/>
		<path class="st1" d="M371,158.7l-24.8,0.1c-0.7,0-1.3,0.5-1.2,1.1c0,0.7,0.5,1.3,1.1,1.2L371,161c0.7,0,1.3-0.5,1.2-1.1
			C372.2,159.2,371.7,158.6,371,158.7z"/>
		<path class="st1" d="M319.8,198.7c2-1.1,2.6-3.6,1.5-5.6c-1.1-2-3.6-2.6-5.6-1.5c-2,1.1-2.6,3.6-1.5,5.6
			C315.3,199.2,317.8,199.9,319.8,198.7z"/>
		<path class="st1" d="M340.2,234.1c2-1.1,2.6-3.6,1.5-5.6c-1.1-2-3.6-2.6-5.6-1.5c-2,1.1-2.6,3.6-1.5,5.6
			C335.8,234.6,338.3,235.3,340.2,234.1z"/>
		<path class="st1" d="M382.5,224.7c0.6,0.3,1.2,0.2,1.6-0.4l12.5-21.4c0.3-0.6,0.2-1.2-0.4-1.6c-0.6-0.3-1.2-0.2-1.6,0.4L382,223.1
			C381.6,223.6,381.8,224.4,382.5,224.7z"/>
		<path class="st1" d="M346.2,231.9l24.8-0.1c0.7,0,1.3-0.5,1.2-1.1c0-0.7-0.5-1.3-1.1-1.2l-24.8,0.1c-0.7,0-1.3,0.5-1.2,1.1
			C344.9,231.2,345.5,231.8,346.2,231.9z"/>
		<path class="st1" d="M322.7,188.9l12.5-21.4c0.3-0.6,0.2-1.2-0.4-1.6c-0.6-0.3-1.2-0.2-1.6,0.4l-12.5,21.4
			c-0.3,0.6-0.2,1.2,0.4,1.6C321.8,189.7,322.4,189.5,322.7,188.9z"/>
		<path class="st1" d="M320.7,202.7l12.4,21.5c0.3,0.5,1.1,0.7,1.6,0.4c0.5-0.3,0.7-1.1,0.4-1.6l-12.4-21.5
			c-0.3-0.5-1.1-0.7-1.6-0.4C320.7,201.4,320.4,202.2,320.7,202.7z"/>
		<path class="st1" d="M364.1,189.7l12.2-22.4c0.3-0.6,0.2-1.2-0.4-1.6c-0.6-0.3-1.2-0.2-1.6,0.4l-12.2,22.4
			c-0.3,0.6-0.2,1.2,0.4,1.6C363,190.5,363.7,190.3,364.1,189.7z"/>
		<path class="st1" d="M356.3,188.7l-13-22.5c-0.3-0.5-1.1-0.7-1.6-0.4c-0.5,0.3-0.7,1.1-0.4,1.6l13,22.5c0.3,0.5,1.1,0.7,1.6,0.4
			C356.4,190,356.6,189.2,356.3,188.7z"/>
		<path class="st1" d="M351.2,194.8l-25.5-0.7c-0.7,0-1.3,0.5-1.2,1.1c0,0.7,0.5,1.3,1.1,1.2l25.5,0.7c0.7,0,1.3-0.5,1.2-1.1
			C352.3,195.5,351.7,195,351.2,194.8z"/>
		<path class="st1" d="M362.3,203.8l11.8,20.5c0.3,0.5,1.1,0.7,1.6,0.4c0.5-0.3,0.7-1.1,0.4-1.6l-11.8-20.5
			c-0.3-0.5-1.1-0.7-1.6-0.4C362,202.6,361.9,203.1,362.3,203.8z"/>
		<path class="st1" d="M381,163.4c2-1.1,2.6-3.6,1.5-5.6c-1.1-2-3.6-2.6-5.6-1.5c-2,1.1-2.6,3.6-1.5,5.6
			C376.5,163.9,379,164.5,381,163.4z"/>
		<path class="st1" d="M74.9,410.9c2-1.1,2.6-3.6,1.5-5.6c-1.1-2-3.6-2.6-5.6-1.5c-2,1.1-2.6,3.6-1.5,5.6
			C70.4,411.3,72.9,412,74.9,410.9z"/>
		<path class="st1" d="M105.6,406.2l-24.8,0.1c-0.7,0-1.3,0.5-1.2,1.1c0,0.7,0.5,1.3,1.1,1.2l24.8-0.1c0.7,0,1.3-0.5,1.2-1.1
			C106.8,406.7,106.3,406.3,105.6,406.2z"/>
		<path class="st1" d="M57.3,436.4l12.5-21.4c0.3-0.6,0.2-1.2-0.4-1.6c-0.6-0.3-1.2-0.2-1.6,0.4l-12.5,21.4
			c-0.3,0.6-0.2,1.2,0.4,1.6C56.4,437.1,57.1,436.9,57.3,436.4z"/>
		<path class="st1" d="M98.7,437.3l12.2-22.4c0.3-0.6,0.2-1.2-0.4-1.6c-0.6-0.3-1.2-0.2-1.6,0.4l-12.2,22.4
			c-0.3,0.6-0.2,1.2,0.4,1.6C97.5,438,98.3,437.8,98.7,437.3z"/>
		<path class="st1" d="M90.8,436.2l-13-22.5c-0.3-0.5-1.1-0.7-1.6-0.4c-0.5,0.3-0.7,1.1-0.4,1.6l13,22.5c0.3,0.5,1.1,0.7,1.6,0.4
			C90.9,437.5,91.1,436.7,90.8,436.2z"/>
		<path class="st1" d="M136,375.5c2-1.1,2.6-3.6,1.5-5.6c-1.1-2-3.6-2.6-5.6-1.5c-2,1.1-2.6,3.6-1.5,5.6
			C131.6,376,134.1,376.7,136,375.5z"/>
		<path class="st1" d="M157.1,412c2-1.1,2.6-3.6,1.5-5.6c-1.1-2-3.6-2.6-5.6-1.5c-2,1.1-2.6,3.6-1.5,5.6
			C152.6,412.4,155.1,413.1,157.1,412z"/>
		<path class="st1" d="M166.8,370.9L142,371c-0.7,0-1.3,0.5-1.2,1.1c0,0.7,0.5,1.3,1.1,1.2l24.8-0.1c0.7,0,1.3-0.5,1.2-1.1
			C168,371.3,167.5,370.9,166.8,370.9z"/>
		<path class="st1" d="M115.6,411c2-1.1,2.6-3.6,1.5-5.6c-1.1-2-3.6-2.6-5.6-1.5c-2,1.1-2.6,3.6-1.5,5.6
			C111.2,411.5,113.7,412.2,115.6,411z"/>
		<path class="st1" d="M178.2,436.8c0.6,0.3,1.2,0.2,1.6-0.4l12.5-21.4c0.3-0.6,0.2-1.2-0.4-1.6c-0.6-0.3-1.2-0.2-1.6,0.4
			l-12.5,21.4C177.6,435.8,177.7,436.4,178.2,436.8z"/>
		<path class="st1" d="M118.6,401l12.5-21.4c0.3-0.6,0.2-1.2-0.4-1.6c-0.6-0.3-1.2-0.2-1.6,0.4l-12.5,21.4c-0.3,0.6-0.2,1.2,0.4,1.6
			C117.5,401.8,118.3,401.6,118.6,401z"/>
		<path class="st1" d="M116.6,415l12.4,21.5c0.3,0.5,1.1,0.7,1.6,0.4c0.5-0.3,0.7-1.1,0.4-1.6l-12.4-21.5c-0.3-0.5-1.1-0.7-1.6-0.4
			C116.5,413.7,116.2,414.3,116.6,415z"/>
		<path class="st1" d="M159.9,402l12.2-22.4c0.3-0.6,0.2-1.2-0.4-1.6c-0.6-0.3-1.2-0.2-1.6,0.4l-12.2,22.4c-0.3,0.6-0.2,1.2,0.4,1.6
			C158.9,402.6,159.5,402.4,159.9,402z"/>
		<path class="st1" d="M152,400.9l-13-22.5c-0.3-0.5-1.1-0.7-1.6-0.4c-0.5,0.3-0.7,1.1-0.4,1.6l13,22.5c0.3,0.5,1.1,0.7,1.6,0.4
			C152.1,402.2,152.3,401.4,152,400.9z"/>
		<path class="st1" d="M147,407l-25.5-0.7c-0.7,0-1.3,0.5-1.2,1.1c0,0.7,0.5,1.3,1.1,1.2l25.5,0.7c0.7,0,1.3-0.5,1.2-1.1
			C148.2,407.6,147.7,407,147,407z"/>
		<path class="st1" d="M158,416l11.8,20.5c0.3,0.5,1.1,0.7,1.6,0.4c0.5-0.3,0.7-1.1,0.4-1.6L160,414.8c-0.3-0.5-1.1-0.7-1.6-0.4
			C157.9,414.6,157.7,415.4,158,416z"/>
		<path class="st1" d="M197.2,340.2c2-1.1,2.6-3.6,1.5-5.6c-1.1-2-3.6-2.6-5.6-1.5c-2,1.1-2.6,3.6-1.5,5.6
			C192.7,340.7,195.2,341.4,197.2,340.2z"/>
		<path class="st1" d="M218.3,376.7c2-1.1,2.6-3.6,1.5-5.6c-1.1-2-3.6-2.6-5.6-1.5c-2,1.1-2.6,3.6-1.5,5.6
			C213.8,377.1,216.3,377.8,218.3,376.7z"/>
		<path class="st1" d="M228.1,335.5l-24.8,0.1c-0.7,0-1.3,0.5-1.2,1.1c0,0.7,0.5,1.3,1.1,1.2l24.8-0.1c0.7,0,1.3-0.5,1.2-1.1
			C229.3,335.9,228.8,335.5,228.1,335.5z"/>
		<path class="st1" d="M177,375.6c2-1.1,2.6-3.6,1.5-5.6c-1.1-2-3.6-2.6-5.6-1.5c-2,1.1-2.6,3.6-1.5,5.6
			C172.5,376.1,175,376.8,177,375.6z"/>
		<path class="st1" d="M197.3,410.9c2-1.1,2.6-3.6,1.5-5.6c-1.1-2-3.6-2.6-5.6-1.5c-2,1.1-2.6,3.6-1.5,5.6
			C192.9,411.3,195.4,412,197.3,410.9z"/>
		<path class="st1" d="M239.6,401.4c0.6,0.3,1.2,0.2,1.6-0.4l12.5-21.4c0.3-0.6,0.2-1.2-0.4-1.6c-0.6-0.3-1.2-0.2-1.6,0.4
			l-12.5,21.4C238.8,400.5,238.9,401.1,239.6,401.4z"/>
		<path class="st1" d="M203.2,408.6l24.8-0.1c0.7,0,1.3-0.5,1.2-1.1c0-0.7-0.5-1.3-1.1-1.2l-24.8,0.1c-0.7,0-1.3,0.5-1.2,1.1
			C202.1,408.1,202.5,408.5,203.2,408.6z"/>
		<path class="st1" d="M179.8,365.6l12.5-21.4c0.3-0.6,0.2-1.2-0.4-1.6c-0.6-0.3-1.2-0.2-1.6,0.4l-12.5,21.4
			c-0.3,0.6-0.2,1.2,0.4,1.6C178.9,366.4,179.5,366.3,179.8,365.6z"/>
		<path class="st1" d="M177.9,379.6l12.4,21.5c0.3,0.5,1.1,0.7,1.6,0.4c0.5-0.3,0.7-1.1,0.4-1.6L180,378.4c-0.3-0.5-1.1-0.7-1.6-0.4
			C177.7,378.4,177.5,378.9,177.9,379.6z"/>
		<path class="st1" d="M221.2,366.6l12.2-22.4c0.3-0.6,0.2-1.2-0.4-1.6c-0.6-0.3-1.2-0.2-1.6,0.4l-12.2,22.4
			c-0.3,0.6-0.2,1.2,0.4,1.6C220.1,367.3,220.8,367,221.2,366.6z"/>
		<path class="st1" d="M213.2,365.6l-13-22.5c-0.3-0.5-1.1-0.7-1.6-0.4c-0.5,0.3-0.7,1.1-0.4,1.6l13,22.5c0.3,0.5,1.1,0.7,1.6,0.4
			C213.5,366.8,213.5,366.1,213.2,365.6z"/>
		<path class="st1" d="M208.3,371.6l-25.5-0.7c-0.7,0-1.3,0.5-1.2,1.1c0,0.7,0.5,1.3,1.1,1.2l25.5,0.7c0.7,0,1.3-0.5,1.2-1.1
			C209.4,372.3,208.8,371.7,208.3,371.6z"/>
		<path class="st1" d="M219.2,380.6l11.8,20.5c0.3,0.5,1.1,0.7,1.6,0.4c0.5-0.3,0.7-1.1,0.4-1.6l-11.8-20.5
			c-0.3-0.5-1.1-0.7-1.6-0.4C219.1,379.3,218.9,380.1,219.2,380.6z"/>
		<path class="st1" d="M258.6,304.8c2-1.1,2.6-3.6,1.5-5.6c-1.1-2-3.6-2.6-5.6-1.5c-2,1.1-2.6,3.6-1.5,5.6
			C254.1,305.3,256.6,305.9,258.6,304.8z"/>
		<path class="st1" d="M279.6,341.2c2-1.1,2.6-3.6,1.5-5.6c-1.1-2-3.6-2.6-5.6-1.5c-2,1.1-2.6,3.6-1.5,5.6
			C275.1,341.7,277.6,342.4,279.6,341.2z"/>
		<path class="st1" d="M289.3,300.1l-24.8,0.1c-0.7,0-1.3,0.5-1.2,1.1c0,0.7,0.5,1.3,1.1,1.2l24.8-0.1c0.7,0,1.3-0.5,1.2-1.1
			C290.5,300.6,290,300.2,289.3,300.1z"/>
		<path class="st1" d="M238.2,340.3c2-1.1,2.6-3.6,1.5-5.6c-1.1-2-3.6-2.6-5.6-1.5c-2,1.1-2.6,3.6-1.5,5.6
			C233.7,340.8,236.2,341.4,238.2,340.3z"/>
		<path class="st1" d="M258.5,375.6c2-1.1,2.6-3.6,1.5-5.6c-1.1-2-3.6-2.6-5.6-1.5c-2,1.1-2.6,3.6-1.5,5.6
			C254,376,256.5,376.7,258.5,375.6z"/>
		<path class="st1" d="M300.7,366.1c0.6,0.3,1.2,0.2,1.6-0.4l12.5-21.4c0.3-0.6,0.2-1.2-0.4-1.6c-0.6-0.3-1.2-0.2-1.6,0.4
			l-12.5,21.4C300,365.2,300.1,365.8,300.7,366.1z"/>
		<path class="st1" d="M264.6,373.2l24.8-0.1c0.7,0,1.3-0.5,1.2-1.1c0-0.7-0.5-1.3-1.1-1.2l-24.8,0.1c-0.7,0-1.3,0.5-1.2,1.1
			C263.4,372.7,263.9,373.1,264.6,373.2z"/>
		<path class="st1" d="M241.2,330.2l12.5-21.4c0.3-0.6,0.2-1.2-0.4-1.6c-0.6-0.3-1.2-0.2-1.6,0.4l-12.5,21.4
			c-0.3,0.6-0.2,1.2,0.4,1.6C240.1,331.1,240.8,330.8,241.2,330.2z"/>
		<path class="st1" d="M239.1,344.3l12.4,21.5c0.3,0.5,1.1,0.7,1.6,0.4c0.5-0.3,0.7-1.1,0.4-1.6l-12.4-21.5
			c-0.3-0.5-1.1-0.7-1.6-0.4C239,343,238.7,343.6,239.1,344.3z"/>
		<path class="st1" d="M282.4,331.2l12.2-22.4c0.3-0.6,0.2-1.2-0.4-1.6c-0.6-0.3-1.2-0.2-1.6,0.4l-12.2,22.4
			c-0.3,0.6-0.2,1.2,0.4,1.6C281.2,331.9,282,331.7,282.4,331.2z"/>
		<path class="st1" d="M274.6,330.1l-13-22.5c-0.3-0.5-1.1-0.7-1.6-0.4c-0.5,0.3-0.7,1.1-0.4,1.6l13,22.5c0.3,0.5,1.1,0.7,1.6,0.4
			C274.6,331.4,274.8,330.6,274.6,330.1z"/>
		<path class="st1" d="M269.5,336.2l-25.5-0.7c-0.7,0-1.3,0.5-1.2,1.1c0,0.7,0.5,1.3,1.1,1.2l25.5,0.7c0.7,0,1.3-0.5,1.2-1.1
			C270.7,336.9,270.2,336.3,269.5,336.2z"/>
		<path class="st1" d="M280.5,345.2l11.8,20.5c0.3,0.5,1.1,0.7,1.6,0.4c0.5-0.3,0.7-1.1,0.4-1.6L282.6,344c-0.3-0.5-1.1-0.7-1.6-0.4
			C280.5,343.9,280.2,344.7,280.5,345.2z"/>
		<path class="st1" d="M319.7,269.5c2-1.1,2.6-3.6,1.5-5.6c-1.1-2-3.6-2.6-5.6-1.5c-2,1.1-2.6,3.6-1.5,5.6
			C315.3,269.9,317.8,270.6,319.7,269.5z"/>
		<path class="st1" d="M340.8,305.9c2-1.1,2.6-3.6,1.5-5.6c-1.1-2-3.6-2.6-5.6-1.5c-2,1.1-2.6,3.6-1.5,5.6
			C336.3,306.4,338.8,307,340.8,305.9z"/>
		<path class="st1" d="M350.5,264.8l-24.8,0.1c-0.7,0-1.3,0.5-1.2,1.1c0,0.7,0.5,1.3,1.1,1.2l24.8-0.1c0.7,0,1.3-0.5,1.2-1.1
			C351.7,265.3,351.2,264.9,350.5,264.8z"/>
		<path class="st1" d="M299.5,304.9c2-1.1,2.6-3.6,1.5-5.6c-1.1-2-3.6-2.6-5.6-1.5c-2,1.1-2.6,3.6-1.5,5.6
			C295,305.3,297.5,306,299.5,304.9z"/>
		<path class="st1" d="M319.9,340.1c2-1.1,2.6-3.6,1.5-5.6c-1.1-2-3.6-2.6-5.6-1.5c-2,1.1-2.6,3.6-1.5,5.6
			C315.4,340.6,317.9,341.3,319.9,340.1z"/>
		<path class="st1" d="M361.9,330.8c0.6,0.3,1.2,0.2,1.6-0.4l12.5-21.4c0.3-0.6,0.2-1.2-0.4-1.6c-0.6-0.3-1.2-0.2-1.6,0.4
			l-12.5,21.4C361.3,329.8,361.5,330.4,361.9,330.8z"/>
		<path class="st1" d="M325.8,337.8l24.8-0.1c0.7,0,1.3-0.5,1.2-1.1c0-0.7-0.5-1.3-1.1-1.2l-24.8,0.1c-0.7,0-1.3,0.5-1.2,1.1
			C324.6,337.4,325.1,337.8,325.8,337.8z"/>
		<path class="st1" d="M302.3,294.9l12.5-21.4c0.3-0.6,0.2-1.2-0.4-1.6c-0.6-0.3-1.2-0.2-1.6,0.4l-12.5,21.4
			c-0.3,0.6-0.2,1.2,0.4,1.6C301.2,295.7,302,295.5,302.3,294.9z"/>
		<path class="st1" d="M300.5,308.9l12.4,21.5c0.3,0.5,1.1,0.7,1.6,0.4c0.5-0.3,0.7-1.1,0.4-1.6l-12.4-21.5
			c-0.3-0.5-1.1-0.7-1.6-0.4C300.2,307.6,300.1,308.2,300.5,308.9z"/>
		<path class="st1" d="M343.6,295.9l12.2-22.4c0.3-0.6,0.2-1.2-0.4-1.6c-0.6-0.3-1.2-0.2-1.6,0.4l-12.2,22.4
			c-0.3,0.6-0.2,1.2,0.4,1.6C342.6,296.5,343.4,296.3,343.6,295.9z"/>
		<path class="st1" d="M335.7,294.8l-13-22.5c-0.3-0.5-1.1-0.7-1.6-0.4c-0.5,0.3-0.7,1.1-0.4,1.6l13,22.5c0.3,0.5,1.1,0.7,1.6,0.4
			C336,296,336,295.3,335.7,294.8z"/>
		<path class="st1" d="M330.7,300.9l-25.5-0.7c-0.7,0-1.3,0.5-1.2,1.1c0,0.7,0.5,1.3,1.1,1.2l25.5,0.7c0.7,0,1.3-0.5,1.2-1.1
			C331.9,301.5,331.4,301,330.7,300.9z"/>
		<path class="st1" d="M341.7,309.9l11.8,20.5c0.3,0.5,1.1,0.7,1.6,0.4c0.5-0.3,0.7-1.1,0.4-1.6l-11.8-20.5
			c-0.3-0.5-1.1-0.7-1.6-0.4C341.6,308.6,341.4,309.4,341.7,309.9z"/>
		<path class="st1" d="M381.1,234.1c2-1.1,2.6-3.6,1.5-5.6c-1.1-2-3.6-2.6-5.6-1.5c-2,1.1-2.6,3.6-1.5,5.6
			C376.6,234.5,379.1,235.2,381.1,234.1z"/>
		<path class="st1" d="M360.7,269.6c2-1.1,2.6-3.6,1.5-5.6c-1.1-2-3.6-2.6-5.6-1.5c-2,1.1-2.6,3.6-1.5,5.6
			C356.2,270,358.7,270.7,360.7,269.6z"/>
		<path class="st1" d="M381,304.8c2-1.1,2.6-3.6,1.5-5.6c-1.1-2-3.6-2.6-5.6-1.5c-2,1.1-2.6,3.6-1.5,5.6
			C376.6,305.3,379.1,305.9,381,304.8z"/>
		<path class="st1" d="M363.5,259.6l12.5-21.4c0.3-0.6,0.2-1.2-0.4-1.6c-0.6-0.3-1.2-0.2-1.6,0.4l-12.5,21.4
			c-0.3,0.6-0.2,1.2,0.4,1.6C362.6,260.3,363.2,260.2,363.5,259.6z"/>
		<path class="st1" d="M361.6,273.5l12.4,21.5c0.3,0.5,1.1,0.7,1.6,0.4c0.5-0.3,0.7-1.1,0.4-1.6l-12.4-21.5
			c-0.3-0.5-1.1-0.7-1.6-0.4C361.6,272.2,361.2,272.9,361.6,273.5z"/>
		<path class="st1" d="M392,265.5l-25.5-0.7c-0.7,0-1.3,0.5-1.2,1.1c0,0.7,0.5,1.3,1.1,1.2l25.5,0.7c0.7,0,1.3-0.5,1.2-1.1
			C393.1,266.2,392.5,265.6,392,265.5z"/>
		<path class="st1" d="M238.1,411.1c2-1.1,2.6-3.6,1.5-5.6c-1.1-2-3.6-2.6-5.6-1.5c-2,1.1-2.6,3.6-1.5,5.6
			C233.6,411.5,236.1,412.2,238.1,411.1z"/>
		<path class="st1" d="M268.9,406.1l-24.8,0.1c-0.7,0-1.3,0.5-1.2,1.1c0,0.7,0.5,1.3,1.1,1.2l24.8-0.1c0.7,0,1.3-0.5,1.2-1.1
			C270.2,406.8,269.6,406.2,268.9,406.1z"/>
		<path class="st1" d="M220.7,436.5l12.5-21.4c0.3-0.6,0.2-1.2-0.4-1.6c-0.6-0.3-1.2-0.2-1.6,0.4l-12.5,21.4
			c-0.3,0.6-0.2,1.2,0.4,1.6C219.7,437.1,220.3,436.9,220.7,436.5z"/>
		<path class="st1" d="M262,437.2l12.2-22.4c0.3-0.6,0.2-1.2-0.4-1.6c-0.6-0.3-1.2-0.2-1.6,0.4L260,436.1c-0.3,0.6-0.2,1.2,0.4,1.6
			C261,438.1,261.7,437.9,262,437.2z"/>
		<path class="st1" d="M254,436.2l-13-22.5c-0.3-0.5-1.1-0.7-1.6-0.4c-0.5,0.3-0.7,1.1-0.4,1.6l13,22.5c0.3,0.5,1.1,0.7,1.6,0.4
			C254.3,437.4,254.3,436.7,254,436.2z"/>
		<path class="st1" d="M299.5,375.6c2-1.1,2.6-3.6,1.5-5.6c-1.1-2-3.6-2.6-5.6-1.5c-2,1.1-2.6,3.6-1.5,5.6
			C295,376.1,297.5,376.8,299.5,375.6z"/>
		<path class="st1" d="M320.4,411.9c2-1.1,2.6-3.6,1.5-5.6c-1.1-2-3.6-2.6-5.6-1.5s-2.6,3.6-1.5,5.6
			C315.9,412.4,318.4,413,320.4,411.9z"/>
		<path class="st1" d="M330.1,370.8l-24.8,0.1c-0.7,0-1.3,0.5-1.2,1.1c0,0.7,0.5,1.3,1.1,1.2l24.8-0.1c0.7,0,1.3-0.5,1.2-1.1
			C331.4,371.4,330.8,370.9,330.1,370.8z"/>
		<path class="st1" d="M279,411c2-1.1,2.6-3.6,1.5-5.6s-3.6-2.6-5.6-1.5c-2,1.1-2.6,3.6-1.5,5.6C274.5,411.4,277,412.1,279,411z"/>
		<path class="st1" d="M341.6,436.9c0.6,0.3,1.2,0.2,1.6-0.4l12.5-21.4c0.3-0.6,0.2-1.2-0.4-1.6c-0.6-0.3-1.2-0.2-1.6,0.4
			l-12.5,21.4C340.8,435.8,341,436.6,341.6,436.9z"/>
		<path class="st1" d="M282.1,401.1l12.5-21.4c0.3-0.6,0.2-1.2-0.4-1.6c-0.6-0.3-1.2-0.2-1.6,0.4l-12.5,21.4
			c-0.3,0.6-0.2,1.2,0.4,1.6C280.9,401.7,281.6,401.5,282.1,401.1z"/>
		<path class="st1" d="M279.9,414.9l12.4,21.5c0.3,0.5,1.1,0.7,1.6,0.4c0.5-0.3,0.7-1.1,0.4-1.6l-12.4-21.5
			c-0.3-0.5-1.1-0.7-1.6-0.4C279.8,413.6,279.6,414.4,279.9,414.9z"/>
		<path class="st1" d="M323.2,401.9l12.2-22.4c0.3-0.6,0.2-1.2-0.4-1.6c-0.6-0.3-1.2-0.2-1.6,0.4l-12.2,22.4
			c-0.3,0.6-0.2,1.2,0.4,1.6C322.1,402.8,322.9,402.5,323.2,401.9z"/>
		<path class="st1" d="M315.4,400.8l-13-22.5c-0.3-0.5-1.1-0.7-1.6-0.4c-0.5,0.3-0.7,1.1-0.4,1.6l13,22.5c0.3,0.5,1.1,0.7,1.6,0.4
			C315.4,402.1,315.6,401.3,315.4,400.8z"/>
		<path class="st1" d="M310.4,407.1l-25.5-0.7c-0.7,0-1.3,0.5-1.2,1.1c0,0.7,0.5,1.3,1.1,1.2l25.5,0.7c0.7,0,1.3-0.5,1.2-1.1
			C311.5,407.5,311,406.9,310.4,407.1z"/>
		<path class="st1" d="M321.3,415.9l11.8,20.5c0.3,0.5,1.1,0.7,1.6,0.4c0.5-0.3,0.7-1.1,0.4-1.6l-11.8-20.5
			c-0.3-0.5-1.1-0.7-1.6-0.4C321.3,414.6,321,415.4,321.3,415.9z"/>
		<path class="st1" d="M360.6,340.3c2-1.1,2.6-3.6,1.5-5.6c-1.1-2-3.6-2.6-5.6-1.5c-2,1.1-2.6,3.6-1.5,5.6
			C356.2,340.8,358.7,341.4,360.6,340.3z"/>
		<path class="st1" d="M381.6,376.6c2-1.1,2.6-3.6,1.5-5.6c-1.1-2-3.6-2.6-5.6-1.5c-2,1.1-2.6,3.6-1.5,5.6
			C377.1,377,379.6,377.7,381.6,376.6z"/>
		<path class="st1" d="M391.3,335.5l-24.8,0.1c-0.7,0-1.3,0.5-1.2,1.1c0,0.7,0.5,1.3,1.1,1.2l24.8-0.1c0.7,0,1.3-0.5,1.2-1.1
			C392.6,336.1,392,335.5,391.3,335.5z"/>
		<path class="st1" d="M340.3,375.6c2-1.1,2.6-3.6,1.5-5.6c-1.1-2-3.6-2.6-5.6-1.5c-2,1.1-2.6,3.6-1.5,5.6
			C335.8,376,338.4,376.7,340.3,375.6z"/>
		<path class="st1" d="M360.8,411c2-1.1,2.6-3.6,1.5-5.6c-1.1-2-3.6-2.6-5.6-1.5c-2,1.1-2.6,3.6-1.5,5.6
			C356.3,411.4,358.8,412.1,360.8,411z"/>
		<path class="st1" d="M366.6,408.5l24.8-0.1c0.7,0,1.3-0.5,1.2-1.1c0-0.7-0.5-1.3-1.1-1.2l-24.8,0.1c-0.7,0-1.3,0.5-1.2,1.1
			C365.4,408.1,366,408.6,366.6,408.5z"/>
		<path class="st1" d="M343.2,365.7l12.5-21.4c0.3-0.6,0.2-1.2-0.4-1.6c-0.6-0.3-1.2-0.2-1.6,0.4l-12.5,21.4
			c-0.3,0.6-0.2,1.2,0.4,1.6C342,366.4,342.8,366.2,343.2,365.7z"/>
		<path class="st1" d="M341.3,379.5l12.4,21.5c0.3,0.5,1.1,0.7,1.6,0.4c0.5-0.3,0.7-1.1,0.4-1.6l-12.4-21.5
			c-0.3-0.5-1.1-0.7-1.6-0.4C341,378.3,341,379,341.3,379.5z"/>
		<path class="st1" d="M384.4,366.6l12.2-22.4c0.3-0.6,0.2-1.2-0.4-1.6c-0.6-0.3-1.2-0.2-1.6,0.4l-12.2,22.4
			c-0.3,0.6-0.2,1.2,0.4,1.6C383.5,367.3,384.3,367.1,384.4,366.6z"/>
		<path class="st1" d="M376.5,365.5l-13-22.5c-0.3-0.5-1.1-0.7-1.6-0.4c-0.5,0.3-0.7,1.1-0.4,1.6l13,22.5c0.3,0.5,1.1,0.7,1.6,0.4
			C376.8,366.7,376.8,366,376.5,365.5z"/>
		<path class="st1" d="M371.6,371.7l-25.5-0.7c-0.7,0-1.3,0.5-1.2,1.1c0,0.7,0.5,1.3,1.1,1.2l25.5,0.7c0.7,0,1.3-0.5,1.2-1.1
			C372.7,372.2,372.2,371.6,371.6,371.7z"/>
	</g>
</g>
</svg>
