<?xml version="1.0" encoding="utf-8"?>
<!-- Generator: Adobe Illustrator 24.3.0, SVG Export Plug-In . SVG Version: 6.00 Build 0)  -->
<svg version="1.1" id="圖層_1" xmlns="http://www.w3.org/2000/svg" xmlns:xlink="http://www.w3.org/1999/xlink" x="0px" y="0px"
	 viewBox="0 0 375 387" style="enable-background:new 0 0 375 387;" xml:space="preserve">
<style type="text/css">
	.st0{opacity:3.000000e-02;clip-path:url(#SVGID_2_);}
	.st1{fill:#FFFFFF;}
</style>
<g>
	<defs>
		<rect id="SVGID_1_" width="375" height="387"/>
	</defs>
	<clipPath id="SVGID_2_">
		<use xlink:href="#SVGID_1_"  style="overflow:visible;"/>
	</clipPath>
	<g class="st0">
		<path class="st1" d="M377.8,9.7c-2,1.1-2.6,3.6-1.5,5.6c1.1,2,3.6,2.6,5.6,1.5c2-1.1,2.6-3.6,1.5-5.6
			C382.2,9.2,379.7,8.5,377.8,9.7z"/>
		<path class="st1" d="M368,50.8l24.8-0.1c0.7,0,1.3-0.5,1.2-1.1c0-0.7-0.5-1.3-1.1-1.2l-24.8,0.1c-0.7,0-1.3,0.5-1.2,1.1
			C366.9,50.3,367.4,50.9,368,50.8z"/>
		<path class="st1" d="M356.6-15.2c-0.6-0.3-1.2-0.2-1.6,0.4L342.6,6.7c-0.3,0.6-0.2,1.2,0.4,1.6c0.6,0.3,1.2,0.2,1.6-0.4l12.5-21.4
			C357.5-14.1,357.3-14.9,356.6-15.2z"/>
		<path class="st1" d="M375,19.8l-12.2,22.4c-0.3,0.6-0.2,1.2,0.4,1.6c0.6,0.3,1.2,0.2,1.6-0.4L377,20.9c0.3-0.6,0.2-1.2-0.4-1.6
			C376.1,19,375.3,19.2,375,19.8z"/>
		<path class="st1" d="M376.8,5.7L365-14.8c-0.3-0.5-1.1-0.7-1.6-0.4c-0.5,0.3-0.7,1.1-0.4,1.6l11.8,20.5c0.3,0.5,1.1,0.7,1.6,0.4
			C377.1,6.9,377.2,6.4,376.8,5.7z"/>
		<path class="st1" d="M337.6,81.4c-2,1.1-2.6,3.6-1.5,5.6s3.6,2.6,5.6,1.5c2-1.1,2.6-3.6,1.5-5.6C342.1,81,339.6,80.3,337.6,81.4z"
			/>
		<path class="st1" d="M316.6,45c-2,1.1-2.6,3.6-1.5,5.6c1.1,2,3.6,2.6,5.6,1.5c2-1.1,2.6-3.6,1.5-5.6C321,44.5,318.5,43.9,316.6,45
			z"/>
		<path class="st1" d="M306.9,86.1l24.8-0.1c0.7,0,1.3-0.5,1.2-1.1c0-0.7-0.5-1.3-1.1-1.2l-24.8,0.1c-0.7,0-1.3,0.5-1.2,1.1
			C305.7,85.6,306.2,86.2,306.9,86.1z"/>
		<path class="st1" d="M358.1,46.1c-2,1.1-2.6,3.6-1.5,5.6c1.1,2,3.6,2.6,5.6,1.5c2-1.1,2.6-3.6,1.5-5.6
			C362.6,45.6,360.1,45,358.1,46.1z"/>
		<path class="st1" d="M337.7,10.7c-2,1.1-2.6,3.6-1.5,5.6c1.1,2,3.6,2.6,5.6,1.5c2-1.1,2.6-3.6,1.5-5.6
			C342.1,10.2,339.6,9.6,337.7,10.7z"/>
		<path class="st1" d="M295.4,20.1c-0.6-0.3-1.2-0.2-1.6,0.4L281.4,42c-0.3,0.6-0.2,1.2,0.4,1.6c0.6,0.3,1.2,0.2,1.6-0.4l12.5-21.4
			C296.1,21.3,295.9,20.6,295.4,20.1z"/>
		<path class="st1" d="M331.6,13.1l-24.8,0.1c-0.7,0-1.3,0.5-1.2,1.1c0,0.7,0.5,1.3,1.1,1.2l24.8-0.1c0.7,0,1.3-0.5,1.2-1.1
			C332.8,13.7,332.3,13.1,331.6,13.1z"/>
		<path class="st1" d="M355,56l-12.5,21.4c-0.3,0.6-0.2,1.2,0.4,1.6c0.6,0.3,1.2,0.2,1.6-0.4L357,57.1c0.3-0.6,0.2-1.2-0.4-1.6
			C356.1,55.2,355.3,55.4,355,56z"/>
		<path class="st1" d="M357.2,42.1l-12.4-21.5c-0.3-0.5-1.1-0.7-1.6-0.4c-0.5,0.3-0.7,1.1-0.4,1.6l12.4,21.5
			c0.3,0.5,1.1,0.7,1.6,0.4C357.2,43.4,357.5,42.6,357.2,42.1z"/>
		<path class="st1" d="M313.8,55.2l-12.2,22.4c-0.3,0.6-0.2,1.2,0.4,1.6c0.6,0.3,1.2,0.2,1.6-0.4l12.2-22.4c0.3-0.6,0.2-1.2-0.4-1.6
			C314.8,54.4,314.2,54.5,313.8,55.2z"/>
		<path class="st1" d="M321.6,56.1l13,22.5c0.3,0.5,1.1,0.7,1.6,0.4c0.5-0.3,0.7-1.1,0.4-1.6l-13-22.5c-0.3-0.5-1.1-0.7-1.6-0.4
			C321.5,54.8,321.3,55.6,321.6,56.1z"/>
		<path class="st1" d="M326.7,50l25.5,0.7c0.7,0,1.3-0.5,1.2-1.1c0-0.7-0.5-1.3-1.1-1.2l-25.5-0.7c-0.7,0-1.3,0.5-1.2,1.1
			C325.4,49.4,326,50,326.7,50z"/>
		<path class="st1" d="M315.6,41l-11.8-20.5c-0.3-0.5-1.1-0.7-1.6-0.4c-0.5,0.3-0.7,1.1-0.4,1.6l11.8,20.5c0.3,0.5,1.1,0.7,1.6,0.4
			C315.7,42.3,316,41.7,315.6,41z"/>
		<path class="st1" d="M276.4,116.8c-2,1.1-2.6,3.6-1.5,5.6c1.1,2,3.6,2.6,5.6,1.5c2-1.1,2.6-3.6,1.5-5.6
			C280.9,116.3,278.4,115.6,276.4,116.8z"/>
		<path class="st1" d="M255.4,80.3c-2,1.1-2.6,3.6-1.5,5.6c1.1,2,3.6,2.6,5.6,1.5c2-1.1,2.6-3.6,1.5-5.6
			C259.9,79.9,257.4,79.2,255.4,80.3z"/>
		<path class="st1" d="M245.5,121.5l24.8-0.1c0.7,0,1.3-0.5,1.2-1.1c0-0.7-0.5-1.3-1.1-1.2l-24.8,0.1c-0.7,0-1.3,0.5-1.2,1.1
			C244.3,121.1,244.9,121.6,245.5,121.5z"/>
		<path class="st1" d="M296.8,81.5c-2,1.1-2.6,3.6-1.5,5.6c1.1,2,3.6,2.6,5.6,1.5c2-1.1,2.6-3.6,1.5-5.6
			C301.2,81.1,298.7,80.4,296.8,81.5z"/>
		<path class="st1" d="M276.3,46.1c-2,1.1-2.6,3.6-1.5,5.6c1.1,2,3.6,2.6,5.6,1.5c2-1.1,2.6-3.6,1.5-5.6
			C280.8,45.6,278.3,45,276.3,46.1z"/>
		<path class="st1" d="M234.1,55.6c-0.6-0.3-1.2-0.2-1.6,0.4l-12.5,21.4c-0.3,0.6-0.2,1.2,0.4,1.6c0.6,0.3,1.2,0.2,1.6-0.4
			l12.5-21.4C234.9,56.7,234.7,55.9,234.1,55.6z"/>
		<path class="st1" d="M270.4,48.4l-24.8,0.1c-0.7,0-1.3,0.5-1.2,1.1c0,0.7,0.5,1.3,1.1,1.2l24.8-0.1c0.7,0,1.3-0.5,1.2-1.1
			C271.7,49,271.1,48.4,270.4,48.4z"/>
		<path class="st1" d="M293.8,91.3l-12.5,21.4c-0.3,0.6-0.2,1.2,0.4,1.6c0.6,0.3,1.2,0.2,1.6-0.4l12.5-21.4c0.3-0.6,0.2-1.2-0.4-1.6
			C294.8,90.6,294.2,90.7,293.8,91.3z"/>
		<path class="st1" d="M295.8,77.6L283.4,56c-0.3-0.5-1.1-0.7-1.6-0.4c-0.5,0.3-0.7,1.1-0.4,1.6l12.4,21.5c0.3,0.5,1.1,0.7,1.6,0.4
			C296.1,78.8,296.1,78.1,295.8,77.6z"/>
		<path class="st1" d="M252.5,90.6L240.3,113c-0.3,0.6-0.2,1.2,0.4,1.6c0.6,0.3,1.2,0.2,1.6-0.4l12.2-22.4c0.3-0.6,0.2-1.2-0.4-1.6
			C253.6,89.7,252.8,90,252.5,90.6z"/>
		<path class="st1" d="M260.4,91.4l13,22.5c0.3,0.5,1.1,0.7,1.6,0.4c0.5-0.3,0.7-1.1,0.4-1.6l-13-22.5c-0.3-0.5-1.1-0.7-1.6-0.4
			C260.2,90.2,260.1,90.9,260.4,91.4z"/>
		<path class="st1" d="M265.3,85.4l25.5,0.7c0.7,0,1.3-0.5,1.2-1.1c0-0.7-0.5-1.3-1.1-1.2l-25.5-0.7c-0.7,0-1.3,0.5-1.2,1.1
			C264.2,84.7,264.8,85.3,265.3,85.4z"/>
		<path class="st1" d="M254.4,76.4l-11.8-20.5c-0.3-0.5-1.1-0.7-1.6-0.4c-0.5,0.3-0.7,1.1-0.4,1.6l11.8,20.5
			c0.3,0.5,1.1,0.7,1.6,0.4C254.5,77.7,254.8,77,254.4,76.4z"/>
		<path class="st1" d="M215.1,152.2c-2,1.1-2.6,3.6-1.5,5.6c1.1,2,3.6,2.6,5.6,1.5c2-1.1,2.6-3.6,1.5-5.6
			C219.6,151.7,217,151.1,215.1,152.2z"/>
		<path class="st1" d="M194,115.7c-2,1.1-2.6,3.6-1.5,5.6c1.1,2,3.6,2.6,5.6,1.5c2-1.1,2.6-3.6,1.5-5.6
			C198.5,115.3,196,114.6,194,115.7z"/>
		<path class="st1" d="M184.3,156.8l24.8-0.1c0.7,0,1.3-0.5,1.2-1.1c0-0.7-0.5-1.3-1.1-1.2l-24.8,0.1c-0.7,0-1.3,0.5-1.2,1.1
			C183.2,156.4,183.7,157,184.3,156.8z"/>
		<path class="st1" d="M235.6,116.8c-2,1.1-2.6,3.6-1.5,5.6c1.1,2,3.6,2.6,5.6,1.5c2-1.1,2.6-3.6,1.5-5.6
			C240.1,116.4,237.5,115.7,235.6,116.8z"/>
		<path class="st1" d="M215.1,81.4c-2,1.1-2.6,3.6-1.5,5.6c1.1,2,3.6,2.6,5.6,1.5c2-1.1,2.6-3.6,1.5-5.6
			C219.6,81,217.1,80.3,215.1,81.4z"/>
		<path class="st1" d="M172.9,90.9c-0.6-0.3-1.2-0.2-1.6,0.4l-12.5,21.4c-0.3,0.6-0.2,1.2,0.4,1.6c0.6,0.3,1.2,0.2,1.6-0.4
			l12.5-21.4C173.8,92,173.5,91.2,172.9,90.9z"/>
		<path class="st1" d="M209,83.8l-24.8,0.1c-0.7,0-1.3,0.5-1.2,1.1c0,0.7,0.5,1.3,1.1,1.2l24.8-0.1c0.7,0,1.3-0.5,1.2-1.1
			C210.3,84.4,209.7,83.9,209,83.8z"/>
		<path class="st1" d="M232.5,126.8L220,148.2c-0.3,0.6-0.2,1.2,0.4,1.6c0.6,0.3,1.2,0.2,1.6-0.4l12.5-21.4c0.3-0.6,0.2-1.2-0.4-1.6
			C233.6,125.9,232.8,126.1,232.5,126.8z"/>
		<path class="st1" d="M234.6,112.9l-12.4-21.5c-0.3-0.5-1.1-0.7-1.6-0.4c-0.5,0.3-0.7,1.1-0.4,1.6l12.4,21.5
			c0.3,0.5,1.1,0.7,1.6,0.4C234.7,114.2,234.9,113.4,234.6,112.9z"/>
		<path class="st1" d="M191.3,125.9l-12.2,22.4c-0.3,0.6-0.2,1.2,0.4,1.6c0.6,0.3,1.2,0.2,1.6-0.4l12.2-22.4
			c0.3-0.6,0.2-1.2-0.4-1.6C192.4,125.1,191.6,125.3,191.3,125.9z"/>
		<path class="st1" d="M199.1,126.8l13,22.5c0.3,0.5,1.1,0.7,1.6,0.4c0.5-0.3,0.7-1.1,0.4-1.6l-13-22.5c-0.3-0.5-1.1-0.7-1.6-0.4
			C199,125.5,198.8,126.3,199.1,126.8z"/>
		<path class="st1" d="M204.2,120.8l25.5,0.7c0.7,0,1.3-0.5,1.2-1.1c0-0.7-0.5-1.3-1.1-1.2l-25.5-0.7c-0.7,0-1.3,0.5-1.2,1.1
			C202.9,120.1,203.5,120.7,204.2,120.8z"/>
		<path class="st1" d="M193.1,111.8l-11.8-20.5c-0.3-0.5-1.1-0.7-1.6-0.4c-0.5,0.3-0.7,1.1-0.4,1.6l11.8,20.5
			c0.3,0.5,1.1,0.7,1.6,0.4C193.2,113.1,193.5,112.4,193.1,111.8z"/>
		<path class="st1" d="M153.9,187.5c-2,1.1-2.6,3.6-1.5,5.6c1.1,2,3.6,2.6,5.6,1.5c2-1.1,2.6-3.6,1.5-5.6
			C158.4,187,155.9,186.4,153.9,187.5z"/>
		<path class="st1" d="M132.9,151.1c-2,1.1-2.6,3.6-1.5,5.6c1.1,2,3.6,2.6,5.6,1.5c2-1.1,2.6-3.6,1.5-5.6
			C137.3,150.6,134.8,149.9,132.9,151.1z"/>
		<path class="st1" d="M123.1,192.2l24.8-0.1c0.7,0,1.3-0.5,1.2-1.1c0-0.7-0.5-1.3-1.1-1.2l-24.8,0.1c-0.7,0-1.3,0.5-1.2,1.1
			C122,191.7,122.5,192.3,123.1,192.2z"/>
		<path class="st1" d="M174.2,152.3c-2,1.1-2.6,3.6-1.5,5.6c1.1,2,3.6,2.6,5.6,1.5c2-1.1,2.6-3.6,1.5-5.6
			C178.7,151.8,176.2,151.1,174.2,152.3z"/>
		<path class="st1" d="M153.8,116.8c-2,1.1-2.6,3.6-1.5,5.6c1.1,2,3.6,2.6,5.6,1.5c2-1.1,2.6-3.6,1.5-5.6
			C158.3,116.4,155.7,115.7,153.8,116.8z"/>
		<path class="st1" d="M111.7,126.2c-0.6-0.3-1.2-0.2-1.6,0.4l-12.5,21.4c-0.3,0.6-0.2,1.2,0.4,1.6c0.6,0.3,1.2,0.2,1.6-0.4
			l12.5-21.4C112.4,127.4,112.2,126.6,111.7,126.2z"/>
		<path class="st1" d="M147.9,119.1l-24.8,0.1c-0.7,0-1.3,0.5-1.2,1.1c0,0.7,0.5,1.3,1.1,1.2l24.8-0.1c0.7,0,1.3-0.5,1.2-1.1
			C149.1,119.8,148.6,119.2,147.9,119.1z"/>
		<path class="st1" d="M171.3,162.1l-12.5,21.4c-0.3,0.6-0.2,1.2,0.4,1.6c0.6,0.3,1.2,0.2,1.6-0.4l12.5-21.4
			c0.3-0.6,0.2-1.2-0.4-1.6C172.4,161.2,171.6,161.5,171.3,162.1z"/>
		<path class="st1" d="M173.3,148.3l-12.4-21.5c-0.3-0.5-1.1-0.7-1.6-0.4c-0.5,0.3-0.7,1.1-0.4,1.6l12.4,21.5
			c0.3,0.5,1.1,0.7,1.6,0.4C173.5,149.5,173.6,148.8,173.3,148.3z"/>
		<path class="st1" d="M130.1,161.2L118,183.6c-0.3,0.6-0.2,1.2,0.4,1.6c0.6,0.3,1.2,0.2,1.6-0.4l12.2-22.4c0.3-0.6,0.2-1.2-0.4-1.6
			C131.1,160.5,130.3,160.7,130.1,161.2z"/>
		<path class="st1" d="M137.9,162.2l13,22.5c0.3,0.5,1.1,0.7,1.6,0.4c0.5-0.3,0.7-1.1,0.4-1.6l-13-22.5c-0.3-0.5-1.1-0.7-1.6-0.4
			C137.7,161,137.6,161.7,137.9,162.2z"/>
		<path class="st1" d="M143,156.1l25.5,0.7c0.7,0,1.3-0.5,1.2-1.1c0-0.7-0.5-1.3-1.1-1.2l-25.5-0.7c-0.7,0-1.3,0.5-1.2,1.1
			C141.7,155.4,142.3,156,143,156.1z"/>
		<path class="st1" d="M131.9,147.1l-11.8-20.5c-0.3-0.5-1.1-0.7-1.6-0.4c-0.5,0.3-0.7,1.1-0.4,1.6l11.8,20.5
			c0.3,0.5,1.1,0.7,1.6,0.4C132,148.4,132.3,147.8,131.9,147.1z"/>
		<path class="st1" d="M92.5,222.9c-2,1.1-2.6,3.6-1.5,5.6c1.1,2,3.6,2.6,5.6,1.5c2-1.1,2.6-3.6,1.5-5.6
			C97,222.5,94.5,221.8,92.5,222.9z"/>
		<path class="st1" d="M71.5,186.5c-2,1.1-2.6,3.6-1.5,5.6c1.1,2,3.6,2.6,5.6,1.5c2-1.1,2.6-3.6,1.5-5.6
			C76,186,73.5,185.4,71.5,186.5z"/>
		<path class="st1" d="M61.8,227.6l24.8-0.1c0.7,0,1.3-0.5,1.2-1.1c0-0.7-0.5-1.3-1.1-1.2l-24.8,0.1c-0.7,0-1.3,0.5-1.2,1.1
			C60.6,227.1,61.2,227.7,61.8,227.6z"/>
		<path class="st1" d="M113,187.6c-2,1.1-2.6,3.6-1.5,5.6c1.1,2,3.6,2.6,5.6,1.5c2-1.1,2.6-3.6,1.5-5.6
			C117.5,187.1,115,186.5,113,187.6z"/>
		<path class="st1" d="M92.6,152.2c-2,1.1-2.6,3.6-1.5,5.6c1.1,2,3.6,2.6,5.6,1.5c2-1.1,2.6-3.6,1.5-5.6
			C97.1,151.7,94.6,151,92.6,152.2z"/>
		<path class="st1" d="M50.4,161.6c-0.6-0.3-1.2-0.2-1.6,0.4l-12.5,21.4c-0.3,0.6-0.2,1.2,0.4,1.6c0.6,0.3,1.2,0.2,1.6-0.4
			l12.5-21.4C51.2,162.7,51,161.9,50.4,161.6z"/>
		<path class="st1" d="M86.7,154.5l-24.8,0.1c-0.7,0-1.3,0.5-1.2,1.1c0,0.7,0.5,1.3,1.1,1.2l24.8-0.1c0.7,0,1.3-0.5,1.2-1.1
			C87.9,155.1,87.4,154.5,86.7,154.5z"/>
		<path class="st1" d="M110.1,197.4l-12.5,21.4c-0.3,0.6-0.2,1.2,0.4,1.6c0.6,0.3,1.2,0.2,1.6-0.4l12.5-21.4
			c0.3-0.6,0.2-1.2-0.4-1.6C111,196.7,110.4,196.8,110.1,197.4z"/>
		<path class="st1" d="M112.1,183.6l-12.4-21.5c-0.3-0.5-1.1-0.7-1.6-0.4c-0.5,0.3-0.7,1.1-0.4,1.6l12.4,21.5
			c0.3,0.5,1.1,0.7,1.6,0.4C112.2,184.9,112.4,184.1,112.1,183.6z"/>
		<path class="st1" d="M68.8,196.6L56.6,219c-0.3,0.6-0.2,1.2,0.4,1.6c0.6,0.3,1.2,0.2,1.6-0.4l12.2-22.4c0.3-0.6,0.2-1.2-0.4-1.6
			C69.9,195.8,69.1,196,68.8,196.6z"/>
		<path class="st1" d="M76.6,197.6l13,22.5c0.3,0.5,1.1,0.7,1.6,0.4c0.5-0.3,0.7-1.1,0.4-1.6l-13-22.5c-0.3-0.5-1.1-0.7-1.6-0.4
			C76.5,196.3,76.3,197.1,76.6,197.6z"/>
		<path class="st1" d="M81.6,191.5l25.5,0.7c0.7,0,1.3-0.5,1.2-1.1c0-0.7-0.5-1.3-1.1-1.2l-25.5-0.7c-0.7,0-1.3,0.5-1.2,1.1
			C80.5,190.8,81.1,191.4,81.6,191.5z"/>
		<path class="st1" d="M70.6,182.5L58.7,162c-0.3-0.5-1.1-0.7-1.6-0.4c-0.5,0.3-0.7,1.1-0.4,1.6l11.8,20.5c0.3,0.5,1.1,0.7,1.6,0.4
			C70.8,183.7,71,183.2,70.6,182.5z"/>
		<path class="st1" d="M31.4,258.3c-2,1.1-2.6,3.6-1.5,5.6c1.1,2,3.6,2.6,5.6,1.5c2-1.1,2.6-3.6,1.5-5.6
			C35.8,257.8,33.3,257.1,31.4,258.3z"/>
		<path class="st1" d="M10.3,221.8c-2,1.1-2.6,3.6-1.5,5.6c1.1,2,3.6,2.6,5.6,1.5c2-1.1,2.6-3.6,1.5-5.6
			C14.8,221.4,12.3,220.7,10.3,221.8z"/>
		<path class="st1" d="M0.6,262.9l24.8-0.1c0.7,0,1.3-0.5,1.2-1.1c0-0.7-0.5-1.3-1.1-1.2l-24.8,0.1c-0.7,0-1.3,0.5-1.2,1.1
			C-0.6,262.4,0,263,0.6,262.9z"/>
		<path class="st1" d="M51.9,222.9c-2,1.1-2.6,3.6-1.5,5.6c1.1,2,3.6,2.6,5.6,1.5c2-1.1,2.6-3.6,1.5-5.6
			C56.3,222.5,53.8,221.8,51.9,222.9z"/>
		<path class="st1" d="M31.4,187.5c-2,1.1-2.6,3.6-1.5,5.6c1.1,2,3.6,2.6,5.6,1.5c2-1.1,2.6-3.6,1.5-5.6
			C35.9,187,33.4,186.4,31.4,187.5z"/>
		<path class="st1" d="M25.3,189.9L0.5,190c-0.7,0-1.3,0.5-1.2,1.1c0,0.7,0.5,1.3,1.1,1.2l24.8-0.1c0.7,0,1.3-0.5,1.2-1.1
			C26.6,190.5,26,189.9,25.3,189.9z"/>
		<path class="st1" d="M48.8,232.8l-12.5,21.4c-0.3,0.6-0.2,1.2,0.4,1.6c0.6,0.3,1.2,0.2,1.6-0.4l12.5-21.4c0.3-0.6,0.2-1.2-0.4-1.6
			C49.9,232,49.1,232.2,48.8,232.8z"/>
		<path class="st1" d="M50.9,218.9l-12.4-21.5c-0.3-0.5-1.1-0.7-1.6-0.4c-0.5,0.3-0.7,1.1-0.4,1.6l12.4,21.5
			c0.3,0.5,1.1,0.7,1.6,0.4C51,220.2,51.2,219.4,50.9,218.9z"/>
		<path class="st1" d="M7.6,232l-12.2,22.4c-0.3,0.6-0.2,1.2,0.4,1.6c0.6,0.3,1.2,0.2,1.6-0.4l12.2-22.4c0.3-0.6,0.2-1.2-0.4-1.6
			C8.5,231.2,7.9,231.3,7.6,232z"/>
		<path class="st1" d="M15.4,232.9l13,22.5c0.3,0.5,1.1,0.7,1.6,0.4c0.5-0.3,0.7-1.1,0.4-1.6l-13-22.5c-0.3-0.5-1.1-0.7-1.6-0.4
			C15.3,231.6,15.1,232.4,15.4,232.9z"/>
		<path class="st1" d="M20.5,226.8l25.4,0.5c0.7,0,1.3-0.5,1.2-1.1c0-0.7-0.5-1.3-1.1-1.2l-25.5-0.7c-0.7,0-1.3,0.5-1.2,1.1
			C19.2,226.2,19.7,226.8,20.5,226.8z"/>
		<path class="st1" d="M9.4,217.8l-11.8-20.5c-0.3-0.5-1.1-0.7-1.6-0.4c-0.5,0.3-0.7,1.1-0.4,1.6L7.4,219c0.3,0.5,1.1,0.7,1.6,0.4
			C9.5,219.1,9.8,218.5,9.4,217.8z"/>
		<path class="st1" d="M296.8,10.8c-2,1.1-2.6,3.6-1.5,5.6c1.1,2,3.6,2.6,5.6,1.5c2-1.1,2.6-3.6,1.5-5.6
			C301.3,10.3,298.8,9.6,296.8,10.8z"/>
		<path class="st1" d="M266,15.4l24.8-0.1c0.7,0,1.3-0.5,1.2-1.1c0-0.7-0.5-1.3-1.1-1.2l-24.8,0.1c-0.7,0-1.3,0.5-1.2,1.1
			C264.9,15,265.3,15.4,266,15.4z"/>
		<path class="st1" d="M314.2-14.6L301.7,6.8c-0.3,0.6-0.2,1.2,0.4,1.6c0.6,0.3,1.2,0.2,1.6-0.4l12.5-21.4c0.3-0.6,0.2-1.2-0.4-1.6
			C315.3-15.5,314.5-15.3,314.2-14.6z"/>
		<path class="st1" d="M272.9-15.7L260.8,6.7c-0.3,0.6-0.2,1.2,0.4,1.6c0.6,0.3,1.2,0.2,1.6-0.4l12.2-22.4c0.3-0.6,0.2-1.2-0.4-1.6
			C274-16.3,273.4-16.1,272.9-15.7z"/>
		<path class="st1" d="M280.8-14.6l13,22.5c0.3,0.5,1.1,0.7,1.6,0.4c0.5-0.3,0.7-1.1,0.4-1.6l-13-22.5c-0.3-0.5-1.1-0.7-1.6-0.4
			C280.7-15.9,280.5-15.1,280.8-14.6z"/>
		<path class="st1" d="M235.6,46.1c-2,1.1-2.6,3.6-1.5,5.6c1.1,2,3.6,2.6,5.6,1.5c2-1.1,2.6-3.6,1.5-5.6
			C240.1,45.6,237.6,45,235.6,46.1z"/>
		<path class="st1" d="M214.6,9.7c-2,1.1-2.6,3.6-1.5,5.6c1.1,2,3.6,2.6,5.6,1.5c2-1.1,2.6-3.6,1.5-5.6
			C219.1,9.2,216.6,8.5,214.6,9.7z"/>
		<path class="st1" d="M204.7,50.8l24.8-0.1c0.7,0,1.3-0.5,1.2-1.1c0-0.7-0.5-1.3-1.1-1.2l-24.8,0.1c-0.7,0-1.3,0.5-1.2,1.1
			C203.5,50.4,204,50.8,204.7,50.8z"/>
		<path class="st1" d="M255.9,10.7c-2,1.1-2.6,3.6-1.5,5.6c1.1,2,3.6,2.6,5.6,1.5c2-1.1,2.6-3.6,1.5-5.6
			C260.3,10.2,257.8,9.6,255.9,10.7z"/>
		<path class="st1" d="M193.3-15.1c-0.6-0.3-1.2-0.2-1.6,0.4L179.3,6.8c-0.3,0.6-0.2,1.2,0.4,1.6c0.6,0.3,1.2,0.2,1.6-0.4l12.5-21.4
			C194-14.2,193.9-14.8,193.3-15.1z"/>
		<path class="st1" d="M253,20.7l-12.5,21.4c-0.3,0.6-0.2,1.2,0.4,1.6c0.6,0.3,1.2,0.2,1.6-0.4L255,21.8c0.3-0.6,0.2-1.2-0.4-1.6
			C254,19.9,253.4,20,253,20.7z"/>
		<path class="st1" d="M254.9,6.7l-12.4-21.5c-0.3-0.5-1.1-0.7-1.6-0.4c-0.5,0.3-0.7,1.1-0.4,1.6l12.4,21.5c0.3,0.5,1.1,0.7,1.6,0.4
			C255.2,7.9,255.3,7.4,254.9,6.7z"/>
		<path class="st1" d="M211.6,19.7l-12.2,22.4c-0.3,0.6-0.2,1.2,0.4,1.6c0.6,0.3,1.2,0.2,1.6-0.4l12.2-22.4c0.3-0.6,0.2-1.2-0.4-1.6
			C212.8,19.1,212,19.3,211.6,19.7z"/>
		<path class="st1" d="M219.6,20.8l13,22.5c0.3,0.5,1.1,0.7,1.6,0.4c0.5-0.3,0.7-1.1,0.4-1.6l-13-22.5c-0.3-0.5-1.1-0.7-1.6-0.4
			C219.4,19.5,219.3,20.2,219.6,20.8z"/>
		<path class="st1" d="M224.5,14.8l25.5,0.7c0.7,0,1.3-0.5,1.2-1.1c0-0.7-0.5-1.3-1.1-1.2l-25.5-0.7c-0.7,0-1.3,0.5-1.2,1.1
			C223.4,14,224,14.6,224.5,14.8z"/>
		<path class="st1" d="M213.6,5.7l-11.8-20.5c-0.3-0.5-1.1-0.7-1.6-0.4s-0.7,1.1-0.4,1.6l11.8,20.5c0.3,0.5,1.1,0.7,1.6,0.4
			C213.7,7,213.9,6.2,213.6,5.7z"/>
		<path class="st1" d="M174.3,81.5c-2,1.1-2.6,3.6-1.5,5.6c1.1,2,3.6,2.6,5.6,1.5c2-1.1,2.6-3.6,1.5-5.6
			C178.8,81.1,176.2,80.4,174.3,81.5z"/>
		<path class="st1" d="M153.2,45.1c-2,1.1-2.6,3.6-1.5,5.6c1.1,2,3.6,2.6,5.6,1.5c2-1.1,2.6-3.6,1.5-5.6
			C157.7,44.6,155.2,43.9,153.2,45.1z"/>
		<path class="st1" d="M143.5,86.2l24.8-0.1c0.7,0,1.3-0.5,1.2-1.1c0-0.7-0.5-1.3-1.1-1.2l-24.8,0.1c-0.7,0-1.3,0.5-1.2,1.1
			C142.4,85.7,142.8,86.1,143.5,86.2z"/>
		<path class="st1" d="M194.7,46c-2,1.1-2.6,3.6-1.5,5.6c1.1,2,3.6,2.6,5.6,1.5c2-1.1,2.6-3.6,1.5-5.6
			C199.2,45.5,196.6,44.9,194.7,46z"/>
		<path class="st1" d="M174.3,10.8c-2,1.1-2.6,3.6-1.5,5.6c1.1,2,3.6,2.6,5.6,1.5c2-1.1,2.6-3.6,1.5-5.6
			C178.8,10.3,176.3,9.6,174.3,10.8z"/>
		<path class="st1" d="M132.1,20.2c-0.6-0.3-1.2-0.2-1.6,0.4l-12.5,21.4c-0.3,0.6-0.2,1.2,0.4,1.6c0.6,0.3,1.2,0.2,1.6-0.4
			l12.5-21.4C132.9,21.1,132.7,20.5,132.1,20.2z"/>
		<path class="st1" d="M168.2,13.1l-24.8,0.1c-0.7,0-1.3,0.5-1.2,1.1c0,0.7,0.5,1.3,1.1,1.2l24.8-0.1c0.7,0,1.3-0.5,1.2-1.1
			C169.4,13.6,168.9,13.2,168.2,13.1z"/>
		<path class="st1" d="M191.7,56.1l-12.5,21.4c-0.3,0.6-0.2,1.2,0.4,1.6c0.6,0.3,1.2,0.2,1.6-0.4l12.5-21.4c0.3-0.6,0.2-1.2-0.4-1.6
			C192.8,55.2,192,55.5,191.7,56.1z"/>
		<path class="st1" d="M193.7,42l-12.4-21.5c-0.3-0.5-1.1-0.7-1.6-0.4c-0.5,0.3-0.7,1.1-0.4,1.6l12.4,21.5c0.3,0.5,1.1,0.7,1.6,0.4
			C193.8,43.3,194.1,42.7,193.7,42z"/>
		<path class="st1" d="M150.4,55.1l-12.2,22.4c-0.3,0.6-0.2,1.2,0.4,1.6c0.6,0.3,1.2,0.2,1.6-0.4l12.2-22.4c0.3-0.6,0.2-1.2-0.4-1.6
			C151.6,54.4,150.8,54.6,150.4,55.1z"/>
		<path class="st1" d="M158.3,56.2l13,22.5c0.3,0.5,1.1,0.7,1.6,0.4c0.5-0.3,0.7-1.1,0.4-1.6l-13-22.5c-0.3-0.5-1.1-0.7-1.6-0.4
			C158.2,54.9,158,55.7,158.3,56.2z"/>
		<path class="st1" d="M163.4,50.1l25.5,0.7c0.7,0,1.3-0.5,1.2-1.1c0-0.7-0.5-1.3-1.1-1.2l-25.5-0.7c-0.7,0-1.3,0.5-1.2,1.1
			C162.1,49.5,162.7,50,163.4,50.1z"/>
		<path class="st1" d="M152.3,41.1l-11.8-20.5c-0.3-0.5-1.1-0.7-1.6-0.4c-0.5,0.3-0.7,1.1-0.4,1.6l11.8,20.5
			c0.3,0.5,1.1,0.7,1.6,0.4C152.4,42.4,152.6,41.6,152.3,41.1z"/>
		<path class="st1" d="M113.1,116.8c-2,1.1-2.6,3.6-1.5,5.6c1.1,2,3.6,2.6,5.6,1.5c2-1.1,2.6-3.6,1.5-5.6
			C117.6,116.4,115.1,115.7,113.1,116.8z"/>
		<path class="st1" d="M92.1,80.4c-2,1.1-2.6,3.6-1.5,5.6c1.1,2,3.6,2.6,5.6,1.5c2-1.1,2.6-3.6,1.5-5.6C96.5,79.9,94,79.3,92.1,80.4
			z"/>
		<path class="st1" d="M82.3,121.5l24.8-0.1c0.7,0,1.3-0.5,1.2-1.1c0-0.7-0.5-1.3-1.1-1.2l-24.8,0.1c-0.7,0-1.3,0.5-1.2,1.1
			C81.2,121,81.6,121.4,82.3,121.5z"/>
		<path class="st1" d="M133.3,81.4c-2,1.1-2.6,3.6-1.5,5.6c1.1,2,3.6,2.6,5.6,1.5c2-1.1,2.6-3.6,1.5-5.6
			C137.8,81,135.3,80.3,133.3,81.4z"/>
		<path class="st1" d="M113,46.2c-2,1.1-2.6,3.6-1.5,5.6c1.1,2,3.6,2.6,5.6,1.5c2-1.1,2.6-3.6,1.5-5.6C117.5,45.7,114.9,45,113,46.2
			z"/>
		<path class="st1" d="M70.9,55.5c-0.6-0.3-1.2-0.2-1.6,0.4L56.9,77.4c-0.3,0.6-0.2,1.2,0.4,1.6c0.6,0.3,1.2,0.2,1.6-0.4l12.5-21.4
			C71.5,56.6,71.4,56,70.9,55.5z"/>
		<path class="st1" d="M107.1,48.5l-24.8,0.1c-0.7,0-1.3,0.5-1.2,1.1c0,0.7,0.5,1.3,1.1,1.2l24.8-0.1c0.7,0,1.3-0.5,1.2-1.1
			C108.2,48.9,107.8,48.5,107.1,48.5z"/>
		<path class="st1" d="M130.5,91.4L118,112.9c-0.3,0.6-0.2,1.2,0.4,1.6c0.6,0.3,1.2,0.2,1.6-0.4l12.5-21.4c0.3-0.6,0.2-1.2-0.4-1.6
			C131.6,90.6,130.8,90.8,130.5,91.4z"/>
		<path class="st1" d="M132.4,77.5L120,55.9c-0.3-0.5-1.1-0.7-1.6-0.4c-0.5,0.3-0.7,1.1-0.4,1.6l12.4,21.5c0.3,0.5,1.1,0.7,1.6,0.4
			C132.6,78.7,132.8,78.1,132.4,77.5z"/>
		<path class="st1" d="M89.2,90.4l-12.2,22.4c-0.3,0.6-0.2,1.2,0.4,1.6c0.6,0.3,1.2,0.2,1.6-0.4l12.2-22.4c0.3-0.6,0.2-1.2-0.4-1.6
			C90.3,89.8,89.5,90,89.2,90.4z"/>
		<path class="st1" d="M97.1,91.5l13,22.5c0.3,0.5,1.1,0.7,1.6,0.4c0.5-0.3,0.7-1.1,0.4-1.6l-13-22.5c-0.3-0.5-1.1-0.7-1.6-0.4
			C96.9,90.3,96.8,91,97.1,91.5z"/>
		<path class="st1" d="M102.2,85.4l25.5,0.7c0.7,0,1.3-0.5,1.2-1.1c0-0.7-0.5-1.3-1.1-1.2l-25.5-0.7c-0.7,0-1.3,0.5-1.2,1.1
			C100.9,84.8,101.5,85.4,102.2,85.4z"/>
		<path class="st1" d="M91.1,76.4L79.3,55.9c-0.3-0.5-1.1-0.7-1.6-0.4c-0.5,0.3-0.7,1.1-0.4,1.6l11.8,20.5c0.3,0.5,1.1,0.7,1.6,0.4
			C91.2,77.7,91.4,76.9,91.1,76.4z"/>
		<path class="st1" d="M51.7,152.3c-2,1.1-2.6,3.6-1.5,5.6c1.1,2,3.6,2.6,5.6,1.5c2-1.1,2.6-3.6,1.5-5.6
			C56.2,151.8,53.7,151.1,51.7,152.3z"/>
		<path class="st1" d="M30.7,115.8c-2,1.1-2.6,3.6-1.5,5.6c1.1,2,3.6,2.6,5.6,1.5c2-1.1,2.6-3.6,1.5-5.6
			C35.2,115.4,32.7,114.7,30.7,115.8z"/>
		<path class="st1" d="M21,156.9l24.8-0.1c0.7,0,1.3-0.5,1.2-1.1c0-0.7-0.5-1.3-1.1-1.2L21,154.6c-0.7,0-1.3,0.5-1.2,1.1
			C19.8,156.5,20.3,156.9,21,156.9z"/>
		<path class="st1" d="M72.1,116.8c-2,1.1-2.6,3.6-1.5,5.6c1.1,2,3.6,2.6,5.6,1.5c2-1.1,2.6-3.6,1.5-5.6
			C76.6,116.3,74.1,115.6,72.1,116.8z"/>
		<path class="st1" d="M51.8,81.5c-2,1.1-2.6,3.6-1.5,5.6c1.1,2,3.6,2.6,5.6,1.5c2-1.1,2.6-3.6,1.5-5.6C56.3,81,53.8,80.4,51.8,81.5
			z"/>
		<path class="st1" d="M9.6,91c-0.6-0.3-1.2-0.2-1.6,0.4l-12.5,21.4c-0.3,0.6-0.2,1.2,0.4,1.6c0.6,0.3,1.2,0.2,1.6-0.4L10,92.5
			C10.3,91.9,10.2,91.3,9.6,91z"/>
		<path class="st1" d="M45.9,83.8l-24.8,0.1c-0.7,0-1.3,0.5-1.2,1.1c0,0.7,0.5,1.3,1.1,1.2l24.8-0.1c0.7,0,1.3-0.5,1.2-1.1
			C47,84.2,46.6,83.8,45.9,83.8z"/>
		<path class="st1" d="M69.3,126.7l-12.5,21.4c-0.3,0.6-0.2,1.2,0.4,1.6c0.6,0.3,1.2,0.2,1.6-0.4l12.5-21.4c0.3-0.6,0.2-1.2-0.4-1.6
			C70.2,126,69.6,126.1,69.3,126.7z"/>
		<path class="st1" d="M71.2,112.8L58.8,91.3c-0.3-0.5-1.1-0.7-1.6-0.4c-0.5,0.3-0.7,1.1-0.4,1.6l12.4,21.5c0.3,0.5,1.1,0.7,1.6,0.4
			C71.3,114.1,71.6,113.5,71.2,112.8z"/>
		<path class="st1" d="M27.9,125.8l-12.2,22.4c-0.3,0.6-0.2,1.2,0.4,1.6c0.6,0.3,1.2,0.2,1.6-0.4l12.2-22.4c0.3-0.6,0.2-1.2-0.4-1.6
			C29.1,125.1,28.3,125.3,27.9,125.8z"/>
		<path class="st1" d="M35.8,126.9l13,22.5c0.3,0.5,1.1,0.7,1.6,0.4c0.5-0.3,0.7-1.1,0.4-1.6l-13-22.5c-0.3-0.5-1.1-0.7-1.6-0.4
			C35.7,125.6,35.5,126.4,35.8,126.9z"/>
		<path class="st1" d="M40.8,120.8l25.5,0.7c0.7,0,1.3-0.5,1.2-1.1c0-0.7-0.5-1.3-1.1-1.2l-25.5-0.7c-0.7,0-1.3,0.5-1.2,1.1
			C39.7,120.1,40.3,120.7,40.8,120.8z"/>
		<path class="st1" d="M29.8,111.8L17.9,91.3c-0.3-0.5-1.1-0.7-1.6-0.4c-0.5,0.3-0.7,1.1-0.4,1.6L27.7,113c0.3,0.5,1.1,0.7,1.6,0.4
			C30,113.1,30.1,112.4,29.8,111.8z"/>
		<path class="st1" d="M11,152.1c-2,1.1-2.6,3.6-1.5,5.6c1.1,2,3.6,2.6,5.6,1.5c2-1.1,2.6-3.6,1.5-5.6
			C15.4,151.6,12.9,150.9,11,152.1z"/>
		<path class="st1" d="M8,162.2l-12.5,21.4c-0.3,0.6-0.2,1.2,0.4,1.6c0.6,0.3,1.2,0.2,1.6-0.4L10,163.3c0.3-0.6,0.2-1.2-0.4-1.6
			C9.1,161.3,8.3,161.5,8,162.2z"/>
		<path class="st1" d="M10,148.1l-12.4-21.5c-0.3-0.5-1.1-0.7-1.6-0.4c-0.5,0.3-0.7,1.1-0.4,1.6L8,149.3c0.3,0.5,1.1,0.7,1.6,0.4
			C10.1,149.4,10.4,148.8,10,148.1z"/>
		<path class="st1" d="M-20.4,156.1L5,156.6c0.7,0,1.3-0.5,1.2-1.1c0-0.7-0.5-1.3-1.1-1.2l-25.5-0.7c-0.7,0-1.3,0.5-1.2,1.1
			C-21.6,155.5-21.1,156.1-20.4,156.1z"/>
		<path class="st1" d="M133.4,10.7c-2,1.1-2.6,3.6-1.5,5.6c1.1,2,3.6,2.6,5.6,1.5c2-1.1,2.6-3.6,1.5-5.6
			C137.9,10.2,135.3,9.5,133.4,10.7z"/>
		<path class="st1" d="M102.7,15.5l24.8-0.1c0.7,0,1.3-0.5,1.2-1.1c0-0.7-0.5-1.3-1.1-1.2l-24.8,0.1c-0.7,0-1.3,0.5-1.2,1.1
			C101.5,14.9,102,15.5,102.7,15.5z"/>
		<path class="st1" d="M150.8-14.7L138.3,6.7c-0.3,0.6-0.2,1.2,0.4,1.6c0.6,0.3,1.2,0.2,1.6-0.4l12.5-21.4c0.3-0.6,0.2-1.2-0.4-1.6
			C152-15.4,151.2-15.2,150.8-14.7z"/>
		<path class="st1" d="M109.6-15.6L97.5,6.8c-0.3,0.6-0.2,1.2,0.4,1.6s1.2,0.2,1.6-0.4l12.2-22.4c0.3-0.6,0.2-1.2-0.4-1.6
			C110.7-16.5,109.9-16.2,109.6-15.6z"/>
		<path class="st1" d="M117.5-14.5l13,22.5c0.3,0.5,1.1,0.7,1.6,0.4c0.5-0.3,0.7-1.1,0.4-1.6l-13-22.5c-0.3-0.5-1.1-0.7-1.6-0.4
			C117.4-15.8,117.2-15,117.5-14.5z"/>
		<path class="st1" d="M72.2,46c-2,1.1-2.6,3.6-1.5,5.6c1.1,2,3.6,2.6,5.6,1.5c2-1.1,2.6-3.6,1.5-5.6C76.7,45.5,74.2,44.9,72.2,46z"
			/>
		<path class="st1" d="M51.3,9.7c-2,1.1-2.6,3.6-1.5,5.6c1.1,2,3.6,2.6,5.6,1.5c2-1.1,2.6-3.6,1.5-5.6C55.7,9.3,53.2,8.6,51.3,9.7z"
			/>
		<path class="st1" d="M41.5,50.8l24.8-0.1c0.7,0,1.3-0.5,1.2-1.1c0-0.7-0.5-1.3-1.1-1.2l-24.8,0.1c-0.7,0-1.3,0.5-1.2,1.1
			C40.3,50.2,40.8,50.8,41.5,50.8z"/>
		<path class="st1" d="M92.5,10.8c-2,1.1-2.6,3.6-1.5,5.6c1.1,2,3.6,2.6,5.6,1.5c2-1.1,2.6-3.6,1.5-5.6C97,10.3,94.5,9.6,92.5,10.8z
			"/>
		<path class="st1" d="M30-15.3c-0.6-0.3-1.2-0.2-1.6,0.4L16,6.6c-0.3,0.6-0.2,1.2,0.4,1.6c0.6,0.3,1.2,0.2,1.6-0.4l12.5-21.4
			C30.7-14.1,30.5-14.9,30-15.3z"/>
		<path class="st1" d="M89.6,20.6L77.1,42c-0.3,0.6-0.2,1.2,0.4,1.6c0.6,0.3,1.2,0.2,1.6-0.4l12.5-21.4c0.3-0.6,0.2-1.2-0.4-1.6
			C90.8,19.9,90,20.1,89.6,20.6z"/>
		<path class="st1" d="M91.6,6.8L79.2-14.7c-0.3-0.5-1.1-0.7-1.6-0.4c-0.5,0.3-0.7,1.1-0.4,1.6L89.6,8c0.3,0.5,1.1,0.7,1.6,0.4
			C91.8,8,91.9,7.3,91.6,6.8z"/>
		<path class="st1" d="M48.4,19.7L36.3,42.1c-0.3,0.6-0.2,1.2,0.4,1.6c0.6,0.3,1.2,0.2,1.6-0.4l12.2-22.4c0.3-0.6,0.2-1.2-0.4-1.6
			C49.4,19,48.6,19.2,48.4,19.7z"/>
		<path class="st1" d="M56.3,20.8l13,22.5c0.3,0.5,1.1,0.7,1.6,0.4c0.5-0.3,0.7-1.1,0.4-1.6l-13-22.5c-0.3-0.5-1.1-0.7-1.6-0.4
			C56.1,19.6,56,20.3,56.3,20.8z"/>
		<path class="st1" d="M61.3,14.6l25.5,0.7c0.7,0,1.3-0.5,1.2-1.1c0-0.7-0.5-1.3-1.1-1.2l-25.5-0.7c-0.7,0-1.3,0.5-1.2,1.1
			C60.1,14.1,60.7,14.7,61.3,14.6z"/>
		<path class="st1" d="M50.3,5.8L38.5-14.8c-0.3-0.5-1.1-0.7-1.6-0.4c-0.5,0.3-0.7,1.1-0.4,1.6L48.3,6.9c0.3,0.5,1.1,0.7,1.6,0.4
			C50.4,7.1,50.6,6.3,50.3,5.8z"/>
		<path class="st1" d="M10.8,81.4c-2,1.1-2.6,3.6-1.5,5.6c1.1,2,3.6,2.6,5.6,1.5c2-1.1,2.6-3.6,1.5-5.6C15.3,81,12.8,80.3,10.8,81.4
			z"/>
		<path class="st1" d="M-19.8,86.2L5,86.2c0.7,0,1.3-0.5,1.2-1.1c0-0.7-0.5-1.3-1.1-1.2L-19.8,84c-0.7,0-1.3,0.5-1.2,1.1
			C-21.1,85.6-20.5,86.2-19.8,86.2z"/>
		<path class="st1" d="M31.3,46.1c-2,1.1-2.6,3.6-1.5,5.6c1.1,2,3.6,2.6,5.6,1.5c2-1.1,2.6-3.6,1.5-5.6
			C35.8,45.6,33.3,44.9,31.3,46.1z"/>
		<path class="st1" d="M10.9,10.7c-2,1.1-2.6,3.6-1.5,5.6c1.1,2,3.6,2.6,5.6,1.5c2-1.1,2.6-3.6,1.5-5.6
			C15.4,10.2,12.9,9.5,10.9,10.7z"/>
		<path class="st1" d="M5.1,13.1l-24.8,0.1c-0.7,0-1.3,0.5-1.2,1.1c0,0.7,0.5,1.3,1.1,1.2L5,15.4c0.7,0,1.3-0.5,1.2-1.1
			C6.2,13.6,5.7,13,5.1,13.1z"/>
		<path class="st1" d="M28.4,55.9L15.9,77.3c-0.3,0.6-0.2,1.2,0.4,1.6c0.6,0.3,1.2,0.2,1.6-0.4L30.4,57c0.3-0.6,0.2-1.2-0.4-1.6
			C29.4,55.3,28.8,55.4,28.4,55.9z"/>
		<path class="st1" d="M30.4,42.1L18,20.6c-0.3-0.5-1.1-0.7-1.6-0.4c-0.5,0.3-0.7,1.1-0.4,1.6l12.4,21.5c0.3,0.5,1.1,0.7,1.6,0.4
			C30.5,43.4,30.7,42.6,30.4,42.1z"/>
		<path class="st1" d="M-5,56.2L8,78.8c0.3,0.5,1.1,0.7,1.6,0.4c0.5-0.3,0.7-1.1,0.4-1.6L-3,55.1c-0.3-0.5-1.1-0.7-1.6-0.4
			C-5.1,54.9-5.3,55.7-5,56.2z"/>
		<path class="st1" d="M-0.1,50l25.5,0.7c0.7,0,1.3-0.5,1.2-1.1c0-0.7-0.5-1.3-1.1-1.2L0,47.7c-0.7,0-1.3,0.5-1.2,1.1
			C-1.1,49.4-0.5,50-0.1,50z"/>
	</g>
</g>
</svg>
