<svg width="24" height="35" viewBox="0 0 24 35" fill="none" xmlns="http://www.w3.org/2000/svg">
<path d="M23.6472 12.4183V12.609C23.6472 13.9445 22.5719 15.0198 21.2364 15.0198C19.9009 15.0198 18.8256 13.9445 18.8256 12.609V12.4183C18.8256 11.0828 19.9009 10.0074 21.2364 10.0074C22.5719 10.0074 23.6472 11.0828 23.6472 12.4183Z" fill="#36B4E5"/>
<path d="M23.6472 22.4083V22.5991C23.6472 23.9346 22.5719 25.0099 21.2364 25.0099C19.9009 25.0099 18.8256 23.9346 18.8256 22.5991V22.4083C18.8256 21.0729 19.9009 19.9975 21.2364 19.9975C22.5719 19.9975 23.6472 21.0729 23.6472 22.4083Z" fill="#36B4E5"/>
<path d="M14.0387 22.4083V22.5991C14.0387 23.9346 12.9633 25.0099 11.6279 25.0099C10.2924 25.0099 9.21705 23.9346 9.21705 22.5991V22.4083C9.21705 21.0729 10.2924 19.9975 11.6279 19.9975C12.9633 19.9975 14.0387 21.0729 14.0387 22.4083Z" fill="#36B4E5"/>
<path d="M18.8429 7.40586V7.59664C18.8429 8.93212 17.7676 10.0074 16.4321 10.0074C15.0966 10.0074 14.0213 8.93212 14.0213 7.59664V7.40586C14.0213 6.07038 15.0966 4.99506 16.4321 4.99506C17.7676 5.0124 18.8429 6.08772 18.8429 7.40586Z" fill="#36B4E5"/>
<path d="M18.8429 17.4133V17.6041C18.8429 18.9395 17.7676 20.0149 16.4321 20.0149C15.0966 20.0149 14.0213 18.9395 14.0213 17.6041V17.4133C14.0213 16.0778 15.0966 15.0025 16.4321 15.0025C17.7676 15.0025 18.8429 16.0778 18.8429 17.4133Z" fill="#36B4E5"/>
<path d="M23.6472 17.4133V17.6041C23.6472 18.9395 22.5719 20.0149 21.2364 20.0149C19.9009 20.0149 18.8256 18.9395 18.8256 17.6041V17.4133C18.8256 16.0778 19.9009 15.0025 21.2364 15.0025C22.5719 15.0025 23.6472 16.0778 23.6472 17.4133Z" fill="#36B4E5"/>
<path d="M14.0387 2.4108V2.60159C14.0387 3.93707 12.9633 5.01239 11.6279 5.01239C10.2924 5.01239 9.21705 3.93707 9.21705 2.60159V2.4108C9.21705 1.07532 10.2924 0 11.6279 0C12.9633 0.0173439 14.0387 1.09266 14.0387 2.4108Z" fill="#36B4E5"/>
<path d="M14.0387 32.3984V32.5892C14.0387 33.9247 12.9633 35 11.6279 35C10.2924 35 9.21705 33.9247 9.21705 32.5892V32.3984C9.21705 31.0629 10.2924 29.9876 11.6279 29.9876C12.9633 30.005 14.0387 31.0803 14.0387 32.3984Z" fill="#36B4E5"/>
<path d="M9.23439 7.40586V7.59664C9.23439 8.93212 8.15907 10.0074 6.82359 10.0074C5.48811 10.0074 4.41279 8.93212 4.41279 7.59664V7.40586C4.41279 6.07038 5.48811 4.99506 6.82359 4.99506C8.15907 5.0124 9.23439 6.08772 9.23439 7.40586Z" fill="#36B4E5"/>
<path d="M9.23439 2.4108V2.60159C9.23439 3.93707 8.15907 5.01239 6.82359 5.01239C5.48811 5.01239 4.41279 3.93707 4.41279 2.60159V2.4108C4.41279 1.07532 5.48811 0 6.82359 0C8.15907 0.0173439 9.23439 1.09266 9.23439 2.4108Z" fill="#36B4E5"/>
<path d="M9.23439 17.4133V17.6041C9.23439 18.9395 8.15907 20.0149 6.82359 20.0149C5.48811 20.0149 4.41279 18.9395 4.41279 17.6041V17.4133C4.41279 16.0778 5.48811 15.0025 6.82359 15.0025C8.15907 15.0025 9.23439 16.0778 9.23439 17.4133Z" fill="#36B4E5"/>
<path d="M9.23439 12.4183V12.609C9.23439 13.9445 8.15907 15.0198 6.82359 15.0198C5.48811 15.0198 4.41279 13.9445 4.41279 12.609V12.4183C4.41279 11.0828 5.48811 10.0074 6.82359 10.0074C8.15907 10.0074 9.23439 11.0828 9.23439 12.4183Z" fill="#36B4E5"/>
<path d="M9.23439 27.4034V27.5942C9.23439 28.9297 8.15907 30.005 6.82359 30.005C5.48811 30.005 4.41279 28.9297 4.41279 27.5942V27.4034C4.41279 26.0679 5.48811 24.9926 6.82359 24.9926C8.15907 24.9926 9.23439 26.0679 9.23439 27.4034Z" fill="#36B4E5"/>
<path d="M4.43013 27.4034V27.5942C4.43013 28.9297 3.35481 30.005 2.01933 30.005C0.683846 30.005 -0.391475 28.9297 -0.391475 27.5942V27.4034C-0.391475 26.0679 0.683846 24.9926 2.01933 24.9926C3.35481 24.9926 4.43013 26.0679 4.43013 27.4034Z" fill="#36B4E5"/>
<path d="M18.8429 27.4034V27.5942C18.8429 28.9297 17.7676 30.005 16.4321 30.005C15.0966 30.005 14.0213 28.9297 14.0213 27.5942V27.4034C14.0213 26.0679 15.0966 24.9926 16.4321 24.9926C17.7676 24.9926 18.8429 26.0679 18.8429 27.4034Z" fill="#36B4E5"/>
<path d="M9.23439 32.3984V32.5892C9.23439 33.9247 8.15907 35 6.82359 35C5.48811 35 4.41279 33.9247 4.41279 32.5892V32.3984C4.41279 31.0629 5.48811 29.9876 6.82359 29.9876C8.15907 30.005 9.23439 31.0803 9.23439 32.3984Z" fill="#36B4E5"/>
<path d="M4.43013 32.3984V32.5892C4.43013 33.9247 3.35481 35 2.01933 35C0.683846 35 -0.391475 33.9247 -0.391475 32.5892V32.3984C-0.391475 31.0629 0.683846 29.9876 2.01933 29.9876C3.35481 30.005 4.43013 31.0803 4.43013 32.3984Z" fill="#36B4E5"/>
<path d="M4.43013 2.4108V2.60159C4.43013 3.93707 3.35481 5.01239 2.01933 5.01239C0.683846 5.01239 -0.391475 3.93707 -0.391475 2.60159V2.4108C-0.391475 1.07532 0.683846 0 2.01933 0C3.35481 0.0173439 4.43013 1.09266 4.43013 2.4108Z" fill="#36B4E5"/>
<path d="M4.43013 7.40586V7.59664C4.43013 8.93212 3.35481 10.0074 2.01933 10.0074C0.683846 10.0074 -0.391475 8.93212 -0.391475 7.59664V7.40586C-0.391475 6.07038 0.683846 4.99506 2.01933 4.99506C3.35481 5.0124 4.43013 6.08772 4.43013 7.40586Z" fill="#36B4E5"/>
<path d="M4.43013 12.4183V12.609C4.43013 13.9445 3.35481 15.0198 2.01933 15.0198C0.683846 15.0198 -0.391475 13.9445 -0.391475 12.609V12.4183C-0.391475 11.0828 0.683846 10.0074 2.01933 10.0074C3.35481 10.0074 4.43013 11.0828 4.43013 12.4183Z" fill="#36B4E5"/>
<path d="M14.0387 12.4183V12.609C14.0387 13.9445 12.9633 15.0198 11.6279 15.0198C10.2924 15.0198 9.21705 13.9445 9.21705 12.609V12.4183C9.21705 11.0828 10.2924 10.0074 11.6279 10.0074C12.9633 10.0074 14.0387 11.0828 14.0387 12.4183Z" fill="#36B4E5"/>
<path d="M4.43013 17.4133V17.6041C4.43013 18.9395 3.35481 20.0149 2.01933 20.0149C0.683846 20.0149 -0.391475 18.9395 -0.391475 17.6041V17.4133C-0.391475 16.0778 0.683846 15.0025 2.01933 15.0025C3.35481 15.0025 4.43013 16.0778 4.43013 17.4133Z" fill="#36B4E5"/>
<path d="M4.43013 22.4083V22.5991C4.43013 23.9346 3.35481 25.0099 2.01933 25.0099C0.683846 25.0099 -0.391475 23.9346 -0.391475 22.5991V22.4083C-0.391475 21.0729 0.683846 19.9975 2.01933 19.9975C3.35481 19.9975 4.43013 21.0729 4.43013 22.4083Z" fill="#36B4E5"/>
</svg>
